<svg width="40" height="40" viewBox="0 0 40 40" fill="none" xmlns="http://www.w3.org/2000/svg">
<g clip-path="url(#clip0_810_1665)">
<path d="M30.8612 3.21021H1.68717C0.755372 3.21021 0 3.97607 0 4.92081V35.079C0 36.0237 0.755372 36.7896 1.68717 36.7896H30.8612C31.793 36.7896 32.5483 36.0237 32.5483 35.079V4.92081C32.5483 3.97607 31.793 3.21021 30.8612 3.21021Z" fill="#E6F7FE"/>
<path fill-rule="evenodd" clip-rule="evenodd" d="M0 4.92081V10.5681H32.5483V4.92081C32.5483 3.98349 31.775 3.21021 30.8612 3.21021H1.68717C0.749853 3.21021 0 3.98349 0 4.92081Z" fill="#615DF9"/>
<path d="M24.6984 5.60034H24.675C22.3843 5.60034 20.5273 6.17736 20.5273 6.88915V6.91259C20.5273 7.62438 22.3843 8.2014 24.675 8.2014H24.6984C26.9891 8.2014 28.846 7.62438 28.846 6.91259V6.88915C28.846 6.17736 26.9891 5.60034 24.6984 5.60034Z" fill="#A8A8FF"/>
<path fill-rule="evenodd" clip-rule="evenodd" d="M19.5196 10.5681L15.372 3.21021H1.68717C0.749854 3.21021 0 3.98349 0 4.92081V10.5681H19.5196Z" fill="#3342AE"/>
<path d="M5.15534 5.60034H3.351C3.14393 5.60034 2.97607 5.7682 2.97607 5.97527V7.82647C2.97607 8.03354 3.14393 8.2014 3.351 8.2014H5.15534C5.3624 8.2014 5.53026 8.03354 5.53026 7.82647V5.97527C5.53026 5.7682 5.3624 5.60034 5.15534 5.60034Z" fill="#F948B4"/>
<path d="M9.60748 5.60034H7.80315C7.59608 5.60034 7.42822 5.7682 7.42822 5.97527V7.82647C7.42822 8.03354 7.59608 8.2014 7.80315 8.2014H9.60748C9.81455 8.2014 9.98241 8.03354 9.98241 7.82647V5.97527C9.98241 5.7682 9.81455 5.60034 9.60748 5.60034Z" fill="#FECD0A"/>
<path d="M14.0831 5.60034H12.2787C12.0717 5.60034 11.9038 5.7682 11.9038 5.97527V7.82647C11.9038 8.03354 12.0717 8.2014 12.2787 8.2014H14.0831C14.2901 8.2014 14.458 8.03354 14.458 7.82647V5.97527C14.458 5.7682 14.2901 5.60034 14.0831 5.60034Z" fill="#39DF74"/>
<path fill-rule="evenodd" clip-rule="evenodd" d="M0 10.5681H32.5408V11.6105H0V10.5681Z" fill="#CFDEFE"/>
<path fill-rule="evenodd" clip-rule="evenodd" d="M3.81934 14.6924H28.7285V22.519H3.81934V14.6924Z" fill="#4FABF7"/>
<path fill-rule="evenodd" clip-rule="evenodd" d="M3.81934 24.8623H10.1931V32.6889H3.81934V24.8623Z" fill="#E80054"/>
<path fill-rule="evenodd" clip-rule="evenodd" d="M12.9819 25.2606C12.771 25.2606 12.5835 25.0966 12.5835 24.8622C12.5835 24.6513 12.771 24.4639 12.9819 24.4639H28.4476C28.6585 24.4639 28.8459 24.6513 28.8459 24.8622C28.8459 25.0966 28.6585 25.2606 28.4476 25.2606H12.9819Z" fill="#1C2E7A"/>
<path fill-rule="evenodd" clip-rule="evenodd" d="M18.184 27.8851C17.9731 27.8851 17.7856 27.6976 17.7856 27.4633C17.7856 27.2524 17.9731 27.0649 18.184 27.0649H28.7288C28.9632 27.0649 29.1272 27.2524 29.1272 27.4633C29.1272 27.6976 28.9632 27.8851 28.7288 27.8851H18.184Z" fill="#1C2E7A"/>
<path fill-rule="evenodd" clip-rule="evenodd" d="M12.9819 30.4862C12.771 30.4862 12.5835 30.2987 12.5835 30.0878C12.5835 29.8535 12.771 29.6895 12.9819 29.6895H28.7288C28.9631 29.6895 29.1271 29.8535 29.1271 30.0878C29.1271 30.2987 28.9631 30.4862 28.7288 30.4862H12.9819Z" fill="#1C2E7A"/>
<path fill-rule="evenodd" clip-rule="evenodd" d="M18.184 33.0872C17.9731 33.0872 17.7856 32.8998 17.7856 32.6889C17.7856 32.4546 17.9731 32.2905 18.184 32.2905H28.7288C28.9632 32.2905 29.1272 32.4546 29.1272 32.6889C29.1272 32.8998 28.9632 33.0872 28.7288 33.0872H18.184Z" fill="#1C2E7A"/>
<path d="M6.67814 15.7937H8.95114C9.39636 15.7937 9.79472 15.9812 10.0994 16.2624C10.3805 16.567 10.568 16.9653 10.568 17.4106C10.568 17.8324 10.3805 18.2307 10.0994 18.5354C9.79472 18.8165 9.39636 19.004 8.95114 19.004H6.67814C6.46725 19.004 6.27979 18.8165 6.27979 18.6057V16.1921C6.27979 15.9812 6.46725 15.7937 6.67814 15.7937ZM8.95114 16.5904H7.0765V18.2073H8.95114C9.18547 18.2073 9.37293 18.1136 9.51353 17.973H9.53696C9.67756 17.8324 9.77129 17.6215 9.77129 17.4106C9.77129 17.1762 9.67756 16.9888 9.53696 16.8247H9.51353C9.37293 16.6842 9.18547 16.5904 8.95114 16.5904Z" fill="white"/>
<path d="M7.0765 20.5974H8.95114C9.18547 20.5974 9.37293 20.5037 9.51353 20.3631H9.53696C9.67756 20.2225 9.77129 20.035 9.77129 19.8007C9.77129 19.5898 9.67756 19.3789 9.53696 19.2383H9.51353C9.37293 19.0977 9.18547 19.004 8.95114 19.004H7.0765V20.5974ZM8.95114 21.4176H6.67814C6.46725 21.4176 6.27979 21.2301 6.27979 20.9958V18.6056C6.27979 18.3713 6.46725 18.2073 6.67814 18.2073H8.95114C9.39636 18.2073 9.79472 18.3713 10.0994 18.6759C10.3805 18.9571 10.568 19.3555 10.568 19.8007C10.568 20.2459 10.3805 20.6443 10.0994 20.9255C9.79472 21.2301 9.39636 21.4176 8.95114 21.4176Z" fill="white"/>
<path d="M11.9272 16.1921C11.9272 15.9812 12.0913 15.7937 12.3256 15.7937C12.5365 15.7937 12.724 15.9812 12.724 16.1921V20.5975H15.3953C15.6062 20.5975 15.7937 20.7849 15.7937 20.9958C15.7937 21.2301 15.6062 21.4176 15.3953 21.4176H12.3256C12.0913 21.4176 11.9272 21.2301 11.9272 20.9958V16.1921Z" fill="white"/>
<path d="M18.1366 15.7234C18.9334 15.7234 19.6598 16.0514 20.1753 16.567C20.7143 17.0825 21.0189 17.8089 21.0189 18.6056C21.0189 19.4024 20.7143 20.1288 20.1753 20.6443C19.6598 21.1598 18.9334 21.4879 18.1366 21.4879C17.3399 21.4879 16.6369 21.1598 16.1214 20.6443C15.5825 20.1288 15.2778 19.4024 15.2778 18.6056C15.2778 17.8089 15.5825 17.0825 16.1214 16.567C16.6369 16.0514 17.3399 15.7234 18.1366 15.7234ZM19.6129 17.1294C19.238 16.7544 18.7225 16.5201 18.1366 16.5201C17.5743 16.5201 17.0587 16.7544 16.6838 17.1294C16.3089 17.5043 16.0746 18.0198 16.0746 18.6056C16.0746 19.168 16.3089 19.6836 16.6838 20.0819C17.0587 20.4568 17.5743 20.6677 18.1366 20.6677C18.7225 20.6677 19.238 20.4568 19.6129 20.0819C19.9878 19.6836 20.2222 19.168 20.2222 18.6056C20.2222 18.0198 19.9878 17.5043 19.6129 17.1294Z" fill="white"/>
<path d="M24.1122 19.004C23.8779 19.004 23.6904 18.8165 23.6904 18.6056C23.6904 18.3713 23.8779 18.2073 24.1122 18.2073H25.8463C26.0806 18.2073 26.2681 18.3713 26.2681 18.6056V20.3631C26.2681 20.4803 26.1978 20.574 26.1275 20.6443C25.8697 20.9021 25.5416 21.113 25.2136 21.2536L25.1901 21.277C24.8387 21.4176 24.4872 21.4879 24.1122 21.4879C23.3155 21.4879 22.5891 21.1598 22.0736 20.6443C21.558 20.1288 21.23 19.4024 21.23 18.6056C21.23 17.8089 21.558 17.0825 22.0736 16.567C22.5891 16.0514 23.3155 15.7234 24.1122 15.7234C24.4872 15.7234 24.8621 15.7937 25.2136 15.9343C25.5416 16.0749 25.8697 16.2858 26.1509 16.567C26.2915 16.731 26.2915 16.9888 26.1509 17.1294C25.9869 17.2934 25.7291 17.2934 25.5651 17.1294C25.3776 16.9419 25.1433 16.7779 24.9089 16.6841C24.6512 16.5904 24.37 16.5201 24.1122 16.5201C23.5264 16.5201 23.0109 16.7544 22.636 17.1294C22.261 17.5043 22.0267 18.0198 22.0267 18.6056C22.0267 19.168 22.261 19.6836 22.636 20.0819C23.0109 20.4568 23.5264 20.6677 24.1122 20.6677C24.37 20.6677 24.6278 20.6209 24.8855 20.5271H24.9089C25.0964 20.4334 25.2839 20.3162 25.4479 20.1756V19.004H24.1122Z" fill="white"/>
<path fill-rule="evenodd" clip-rule="evenodd" d="M36.2744 11.0603L28.8462 23.9015L31.7753 25.5887L39.1801 12.7475L38.3365 14.2003L35.4074 12.5366L36.2744 11.0603Z" fill="#E80054"/>
<path fill-rule="evenodd" clip-rule="evenodd" d="M28.729 27.4632L28.8462 23.9014L31.7753 25.5885L28.729 27.4632Z" fill="#FFCC99"/>
<path fill-rule="evenodd" clip-rule="evenodd" d="M36.3918 13.0754L29.8071 24.4638L30.8147 25.0262L37.376 13.6613L36.3918 13.0754Z" fill="#D1004C"/>
<path fill-rule="evenodd" clip-rule="evenodd" d="M36.2681 11.0576L39.1811 12.7372L38.3316 14.2118L35.4186 12.5322L36.2681 11.0576Z" fill="#FECD0A"/>
<path fill-rule="evenodd" clip-rule="evenodd" d="M36.2744 11.0602L39.1801 12.7474L39.8128 11.6226C40.1643 11.0133 39.9534 10.2401 39.3441 9.86514L38.6646 9.46678C38.0553 9.11528 37.2586 9.32618 36.9071 9.93543L36.2744 11.0602Z" fill="#D1004C"/>
<path fill-rule="evenodd" clip-rule="evenodd" d="M32.5486 17.5042L28.8462 23.9013L29.8069 24.4637L32.5486 19.7303L36.3916 13.0753L35.4074 12.5364L32.5486 17.5042Z" fill="#BC0044"/>
<path fill-rule="evenodd" clip-rule="evenodd" d="M28.7993 25.6824L28.7524 27.0649L28.729 27.4633L29.0805 27.2524L30.8145 26.1745L28.7993 25.6824Z" fill="#663300"/>
</g>
<defs>
<clipPath id="clip0_810_1665">
<rect width="40" height="40" fill="white"/>
</clipPath>
</defs>
</svg>
