<svg width="40" height="40" viewBox="0 0 40 40" fill="none" xmlns="http://www.w3.org/2000/svg">
<path fill-rule="evenodd" clip-rule="evenodd" d="M36.4062 14.7827C37.6971 14.7827 38.75 15.8356 38.75 17.1265V36.8751C38.75 38.166 37.6971 39.2189 36.4062 39.2189H3.59375C2.30289 39.2189 1.25 38.166 1.25 36.8751V17.1265C1.25 15.8356 2.30281 14.7827 3.59375 14.7827H36.4062Z" fill="#43BDFD"/>
<path fill-rule="evenodd" clip-rule="evenodd" d="M15.4806 26.9854L2.11816 38.6938C2.52145 39.0218 3.03527 39.2188 3.59363 39.2188H36.4061C37.0666 39.2188 37.6648 38.9431 38.0915 38.501L24.7311 26.9288L15.4806 26.9854Z" fill="#2AB1FA"/>
<path fill-rule="evenodd" clip-rule="evenodd" d="M2.11035 15.3139L15.4804 26.9855L20.0436 30.969L24.731 26.9289L38.0448 15.4536C37.6217 15.039 37.0428 14.7827 36.406 14.7827H3.59355C3.03168 14.7827 2.51488 14.9822 2.11035 15.3139Z" fill="#92D2FE"/>
<path fill-rule="evenodd" clip-rule="evenodd" d="M13.3364 14.4965L15.8678 13.8182L18.6256 20.4512C18.7682 20.7943 18.6219 21.1866 18.2915 21.3565L17.2608 21.8868C17.0767 21.9814 16.8825 21.9935 16.6881 21.9221C16.4938 21.8507 16.3543 21.7156 16.2745 21.5246L13.3364 14.4965Z" fill="#F2F2F2"/>
<path fill-rule="evenodd" clip-rule="evenodd" d="M25.0292 0.83822C25.9221 0.599001 26.8483 1.13377 27.0875 2.02658L30.6561 15.3448C30.8953 16.2376 30.3606 17.1638 29.4678 17.4031C28.6346 17.6263 27.7724 17.1755 27.4665 16.3887H27.4664C24.7082 15.1809 20.734 14.7092 16.5832 15.3485L16.6739 15.687L13.5214 16.5317C11.6059 17.0449 9.61862 15.8976 9.10542 13.9821C8.59213 12.0666 9.73948 10.0793 11.655 9.56603L14.8075 8.72134L14.8982 9.05978C18.8125 7.53806 22.0216 5.16189 23.8064 2.73681L23.8064 2.73674C23.6667 1.89572 24.1896 1.06322 25.0292 0.83822Z" fill="#F2F2F2"/>
<path fill-rule="evenodd" clip-rule="evenodd" d="M28.2104 6.85313L29.2154 10.6035C29.358 10.5973 29.5022 10.5758 29.6458 10.5373C30.7068 10.253 31.3364 9.1625 31.0521 8.10157C30.7678 7.04063 29.6773 6.4111 28.6164 6.69532C28.4727 6.73375 28.3371 6.78711 28.2104 6.85313Z" fill="#F2F2F2"/>
<path fill-rule="evenodd" clip-rule="evenodd" d="M14.8075 8.72131L11.655 9.566C9.73945 10.0793 8.59219 12.0665 9.10539 13.982C9.61867 15.8976 11.6059 17.0449 13.5214 16.5317L16.6739 15.6869L14.8075 8.72131Z" fill="#EB745E"/>
<path fill-rule="evenodd" clip-rule="evenodd" d="M25.0291 0.83822C25.922 0.599001 26.8482 1.13377 27.0875 2.02658L30.6561 15.3447C30.8953 16.2375 30.3605 17.1638 29.4677 17.4031C28.5749 17.6423 27.6487 17.1075 27.4095 16.2147L23.8408 2.89658C23.6016 2.00369 24.1363 1.07744 25.0291 0.83822Z" fill="#EB745E"/>
<path fill-rule="evenodd" clip-rule="evenodd" d="M32.9829 12.027L35.4384 12.6848C35.8311 12.7901 36.2349 12.5545 36.3392 12.162C36.4437 11.7691 36.2084 11.3659 35.8162 11.2608L33.3607 10.6029C32.968 10.4977 32.5641 10.7333 32.4599 11.1257C32.3554 11.5187 32.5906 11.9219 32.9829 12.027ZM31.8006 4.78094L33.5981 2.98344C33.8853 2.69625 33.8874 2.22953 33.6005 1.9414C33.3139 1.65367 32.8465 1.65148 32.5589 1.93906L30.7614 3.73656C30.4742 4.02375 30.4721 4.49047 30.7591 4.77859C31.0456 5.06625 31.5131 5.06844 31.8006 4.78094ZM33.9591 8.0893L36.2868 7.46555C36.6819 7.35969 36.9164 6.95359 36.8105 6.55844C36.7047 6.16328 36.2986 5.92883 35.9034 6.03469L33.5756 6.65844C33.1805 6.7643 32.946 7.17039 33.0519 7.56555C33.1578 7.9607 33.5639 8.19515 33.9591 8.0893Z" fill="#EB745E"/>
</svg>
