<svg width="40" height="40" viewBox="0 0 40 40" fill="none" xmlns="http://www.w3.org/2000/svg">
<g clip-path="url(#clip0_810_1575)">
<path d="M8.81348 36.6102C8.81348 38.1078 10.0277 39.322 11.5253 39.322H29.1525C30.6501 39.322 31.8643 38.1078 31.8643 36.6102V33.8983H8.81348V36.6102Z" fill="#E0E0DE"/>
<path d="M8.81348 4.06775H31.8643V33.8983H8.81348V4.06775Z" fill="#60D1E0"/>
<path d="M29.1525 0H11.5253C10.0277 0 8.81348 1.21425 8.81348 2.71186V4.0678H31.8643V2.71186C31.8643 1.21425 30.6501 0 29.1525 0Z" fill="#E0E0DE"/>
<path d="M19.6611 35.9323H21.0171V37.2882H19.6611V35.9323Z" fill="#B0B0AE"/>
<path d="M8.81348 30.5085V33.8983H31.8643V7.45764L8.81348 30.5085Z" fill="#5AC6D4"/>
<path d="M17.6273 16.2712V31.1865H23.0511V22.3729H25.7629V16.2712C25.7629 14.7736 24.5487 13.5594 23.0511 13.5594H14.9155V9.49158H12.2036V14.9153C12.2036 15.6641 12.8107 16.2712 13.5595 16.2712H17.6273Z" fill="#348FD9"/>
<path d="M20.3388 13.5593C18.8412 13.5593 17.627 12.3451 17.627 10.8475V9.49153C17.627 7.99391 18.8412 6.77966 20.3388 6.77966C21.8364 6.77966 23.0507 7.99391 23.0507 9.49153V10.8475C23.0507 12.3451 21.8364 13.5593 20.3388 13.5593Z" fill="#348FD9"/>
<path d="M19.6611 22.3729H21.0171V31.1865H19.6611V22.3729Z" fill="#2A71AD"/>
<path d="M22.373 16.2712H23.729V22.3729H22.373V16.2712Z" fill="#2A71AD"/>
<path d="M31.8643 18.3051L34.9327 22.0067C36.0142 23.2425 36.61 24.8292 36.61 26.4711V40H31.8643V18.3051Z" fill="#FEC9A3"/>
<path d="M33.2204 28.4746L26.1017 21.3559C25.1659 20.4198 23.6477 20.4198 22.7119 21.3559C21.7757 22.2918 21.7757 23.8099 22.7119 24.7458L28.4746 30.5085L27.9165 31.4854C26.6165 33.7603 26.838 36.5983 28.4746 38.6441V40H33.2204V28.4746Z" fill="#FEC9A3"/>
<path d="M14.9154 10.8474L5.42383 12.2034V5.42371L14.9154 7.4576V10.8474Z" fill="#F35244"/>
<path d="M0.513672 6.08145L0.842393 4.76624L3.55426 5.4442L3.22554 6.75942L0.513672 6.08145Z" fill="#60D1E0"/>
<path d="M0.513672 11.5449L3.22554 10.8679L3.55393 12.1835L0.842062 12.8604L0.513672 11.5449Z" fill="#60D1E0"/>
<path d="M0 8.1355H2.71186V9.49143H0V8.1355Z" fill="#60D1E0"/>
<path d="M29.1528 12.2034H30.5087L29.8307 15.5932L35.2545 12.2034H37.2884C38.786 12.2034 40.0002 10.9891 40.0002 9.49153V2.71186C40.0002 1.21425 38.786 0 37.2884 0H29.1528C27.6552 0 26.4409 1.21425 26.4409 2.71186V9.49153C26.4409 10.9891 27.6552 12.2034 29.1528 12.2034Z" fill="#348FD9"/>
<path d="M31.8642 4.74581L33.2201 2.71191L34.5761 4.74581H37.2879L35.254 6.77971L35.932 9.49158L33.2201 8.13564L30.5083 9.49158L31.1862 6.77971L29.1523 4.74581H31.8642Z" fill="#FFB531"/>
</g>
<defs>
<clipPath id="clip0_810_1575">
<rect width="40" height="40" fill="white"/>
</clipPath>
</defs>
</svg>
