<svg width="40" height="40" viewBox="0 0 40 40" fill="none" xmlns="http://www.w3.org/2000/svg">
<path fill-rule="evenodd" clip-rule="evenodd" d="M17.6021 34.3801H22.3981L26.9133 34.7439L28.1378 37.499H11.8623L13.0868 34.7439L17.6021 34.3801Z" fill="#CDC6D3"/>
<path fill-rule="evenodd" clip-rule="evenodd" d="M22.3981 30.1636H17.6021V35.9805H22.3981V30.1636Z" fill="#98A7B2"/>
<path fill-rule="evenodd" clip-rule="evenodd" d="M2.5 8.81995V30.4566H37.5001V8.81995C25.8334 8.81995 14.1666 8.81995 2.5 8.81995Z" fill="#CDC6D3"/>
<path fill-rule="evenodd" clip-rule="evenodd" d="M8.44731 10.8607H4.54102V28.4157H35.4594V10.8607H8.44731Z" fill="#3DBEEF"/>
<path fill-rule="evenodd" clip-rule="evenodd" d="M31.5587 25.8373L8.44727 25.8376V6.71997H31.5532L31.5587 25.8373Z" fill="#E5ECF5"/>
<path fill-rule="evenodd" clip-rule="evenodd" d="M31.5532 2.50122H8.44727V6.71998H31.5532V2.50122Z" fill="#FB7387"/>
<path d="M29.6924 4.95328C29.9081 4.95328 30.083 4.77837 30.083 4.56264C30.083 4.3469 29.9081 4.172 29.6924 4.172H28.1299C27.9142 4.172 27.7393 4.3469 27.7393 4.56264C27.7393 4.77837 27.9142 4.95328 28.1299 4.95328H29.6924Z" fill="#965257"/>
<path d="M26.5674 4.95328C26.7831 4.95328 26.958 4.77837 26.958 4.56264C26.958 4.3469 26.7831 4.172 26.5674 4.172H25.0049C24.7892 4.172 24.6143 4.3469 24.6143 4.56264C24.6143 4.77837 24.7892 4.95328 25.0049 4.95328H26.5674Z" fill="#965257"/>
<path d="M23.4424 4.95328C23.6581 4.95328 23.833 4.77837 23.833 4.56264C23.833 4.3469 23.6581 4.172 23.4424 4.172H21.8799C21.6642 4.172 21.4893 4.3469 21.4893 4.56264C21.4893 4.77837 21.6642 4.95328 21.8799 4.95328H23.4424Z" fill="#965257"/>
<path d="M17.2412 4.95328C17.457 4.95328 17.6319 4.77837 17.6319 4.56264C17.6319 4.3469 17.457 4.172 17.2412 4.172H10.3076C10.0919 4.172 9.91699 4.3469 9.91699 4.56264C9.91699 4.77837 10.0919 4.95328 10.3076 4.95328H17.2412Z" fill="#965257"/>
<path d="M25.2771 21.5556C28.1914 18.6413 28.1914 13.9163 25.2771 11.002C22.3629 8.08773 17.6379 8.08773 14.7236 11.002C11.8093 13.9163 11.8093 18.6413 14.7236 21.5556C17.6379 24.4699 22.3629 24.4699 25.2771 21.5556Z" fill="#62DBFB"/>
<path fill-rule="evenodd" clip-rule="evenodd" d="M28.8514 23.1099L35.2198 29.4782C35.7752 30.0336 35.7754 30.943 35.2198 31.4986C34.6642 32.0542 33.755 32.0542 33.1994 31.4986L26.8311 25.1302L28.8514 23.1099Z" fill="#FA6A7D"/>
<path fill-rule="evenodd" clip-rule="evenodd" d="M25.8031 20.9768C25.6404 21.1772 25.4658 21.3712 25.2792 21.5578C25.0927 21.7443 24.8987 21.919 24.6982 22.0817L27.2891 24.6725L28.3939 23.5676L25.8031 20.9768Z" fill="#FBCB12"/>
<path fill-rule="evenodd" clip-rule="evenodd" d="M18.2377 18.8944L20.3898 16.7424C20.8821 17.1131 21.4696 17.2986 22.0571 17.2986C23.5901 17.2986 24.833 16.0556 24.833 14.5226C24.833 12.9895 23.5902 11.7467 22.0571 11.7467C20.524 11.7467 19.2812 12.9895 19.2812 14.5226C19.2812 15.1102 19.4666 15.6977 19.8374 16.19L17.9606 18.0667L17.2088 17.3149C17.0563 17.1623 16.8089 17.1623 16.6564 17.3149C16.5039 17.4674 16.5039 17.7147 16.6564 17.8673L17.4082 18.6191L16.8357 19.1917L15.699 18.055C15.5465 17.9025 15.2992 17.9025 15.1466 18.055C14.9941 18.2076 14.9941 18.4549 15.1466 18.6074L16.2833 19.7441L15.7899 20.2374C15.6374 20.3899 15.6374 20.6373 15.7899 20.7898C15.9425 20.9423 16.1898 20.9423 16.3423 20.7898L17.1119 20.0203L18.2359 18.8962L18.2368 18.8953L18.2377 18.8944ZM22.0571 16.5173C20.9554 16.5173 20.0625 15.6243 20.0625 14.5226C20.0625 13.4209 20.9554 12.528 22.0571 12.528C23.1588 12.528 24.0518 13.4209 24.0518 14.5226C24.0518 15.6243 23.1588 16.5173 22.0571 16.5173Z" fill="#488EA1"/>
</svg>
