<svg width="40" height="40" viewBox="0 0 40 40" fill="none" xmlns="http://www.w3.org/2000/svg">
<g clip-path="url(#clip0_810_1511)">
<path d="M35.9983 11.725L33.1749 8.72341C33.0157 8.55411 32.7467 8.55411 32.5875 8.72341L29.7641 11.725C29.522 11.9823 29.7045 12.4045 30.0578 12.4045H30.7636V16.9136L31.9616 20.4584L32.3218 20.7643L34.9987 20.6396V12.4044H35.7045C36.0579 12.4044 36.2404 11.9823 35.9983 11.725Z" fill="#B3E59F"/>
<path d="M31.9616 19.7552C31.715 18.7337 31.3056 17.7774 30.7637 16.9136V21.5242L31.5809 22.8919L34.9988 22.2088V20.6396C34.1454 20.3253 33.2464 20.1294 32.3219 20.0612C32.148 20.0483 32.0025 19.9246 31.9616 19.7552Z" fill="#95D6A4"/>
<path d="M21.4021 6.43465H22.1079V12.3969L24.2255 13.474L26.343 13.1447V6.43458H27.0488C27.4021 6.43458 27.5846 6.01247 27.3425 5.75512L24.5191 2.75356C24.3599 2.58426 24.0909 2.58426 23.9317 2.75356L21.1083 5.75512C20.8663 6.01254 21.0487 6.43465 21.4021 6.43465Z" fill="#FFE07D"/>
<path d="M26.3431 14.744V13.1448C25.1878 12.6551 23.9198 12.3843 22.5929 12.3843C22.4309 12.3843 22.2692 12.3889 22.1079 12.397V13.8518L24.2255 15.001L26.3431 14.744Z" fill="#FFD064"/>
<path d="M18.6868 10.0172L15.8634 7.01564C15.7042 6.84635 15.4352 6.84635 15.276 7.01564L12.4526 10.0172C12.2105 10.2746 12.393 10.6967 12.7463 10.6967H13.4521V18.8263L17.6872 13.7269V10.6967H18.393C18.7464 10.6967 18.9289 10.2746 18.6868 10.0172Z" fill="#E7A561"/>
<path d="M13.4521 20.3051L14.5282 21.3204L17.6873 15.471V13.7269C17.2193 14.0037 16.7729 14.3206 16.3544 14.6765C15.0444 15.7904 14.015 17.224 13.4521 18.8263V20.3051Z" fill="#E49542"/>
<path d="M4.79679 5.48409V22.5239L9.03195 19.2125V5.48409H9.73773C10.0911 5.48409 10.2735 5.0619 10.0315 4.80456L7.20812 1.803C7.0489 1.6337 6.77992 1.6337 6.6207 1.803L3.79734 4.80456C3.55523 5.0619 3.73773 5.48409 4.09109 5.48409H4.79679Z" fill="#DE5974"/>
<path d="M9.03203 20.7803V19.2125C7.85305 19.6385 6.77227 20.3219 5.85953 21.2346C5.46023 21.6339 5.10617 22.0661 4.79688 22.5239V26.8067L9.03203 20.7803Z" fill="#C7495D"/>
<path d="M0.0488281 32.1019C0.0488281 35.2427 2.70445 37.5755 5.49312 37.5755H31.5808C35.986 37.5755 39.9685 33.7516 39.9685 29.179C39.6004 24.8691 35.986 21.4855 31.5808 21.4855C31.3051 21.4855 31.0325 21.4992 30.7635 21.5252C30.5059 17.2355 26.9471 13.8359 22.5928 13.8359C18.5508 13.8359 15.1952 16.7659 14.5284 20.6173C13.7356 20.3172 12.8768 20.1516 11.9789 20.1516C8.00086 20.1516 4.77609 23.3764 4.77609 27.3544C4.77609 27.365 4.77688 27.3754 4.77688 27.3859C2.32063 27.7059 0.374531 29.6476 0.0488281 32.1019Z" fill="#A2DAFD"/>
<path d="M31.5808 36.8724C27.0258 36.8724 7.96344 36.8724 5.49312 36.8724C2.70445 36.8724 0.402813 34.7939 0.0488281 32.1018C0.0171094 32.3404 0 32.5836 0 32.8309C0 35.8647 2.4593 38.324 5.49305 38.324H31.5807C36.2305 38.324 39.9999 34.5545 39.9999 29.9047C39.9999 29.6601 39.9889 29.4182 39.9684 29.179C39.6004 33.4889 35.986 36.8724 31.5808 36.8724Z" fill="#83C8EA"/>
<path d="M22.1919 26.7615C22.5266 26.7615 22.7979 26.4901 22.7979 26.1555C22.7979 25.8207 22.5266 25.5494 22.1919 25.5494H19.3541C19.0194 25.5494 18.748 25.8207 18.748 26.1555V32.8905C18.748 33.2252 19.0194 33.4965 19.3541 33.4965H22.1919C22.5266 33.4965 22.7979 33.2252 22.7979 32.8905C22.7979 32.5558 22.5266 32.2845 22.1919 32.2845H19.9601V30.129H21.9827C22.3173 30.129 22.5887 29.8577 22.5887 29.523C22.5887 29.1883 22.3173 28.917 21.9827 28.917H19.9601V26.7615H22.1919V26.7615Z" fill="white"/>
<path d="M15.0083 32.3155C14.2651 32.3155 13.5476 32.0133 13.0888 31.507C12.864 31.2589 12.4808 31.2402 12.2328 31.4648C11.9847 31.6895 11.9659 32.0727 12.1907 32.3208C12.8754 33.0763 13.9286 33.5274 15.0083 33.5274C16.3014 33.5274 17.4279 32.6794 17.6287 31.5548C17.8604 30.2575 16.8402 29.3884 15.8083 29.0079C14.9336 28.6852 14.1222 28.333 13.9175 28.243C13.7003 28.0839 13.5949 27.8296 13.6343 27.5547C13.684 27.2085 13.9501 26.9307 14.3459 26.8114C15.4364 26.4827 16.4219 27.273 16.4412 27.2888C16.6974 27.5022 17.0782 27.4685 17.2929 27.213C17.5082 26.9568 17.4751 26.5745 17.219 26.3591C17.1588 26.3087 15.7285 25.1291 13.9962 25.6508C13.1497 25.9059 12.5513 26.5694 12.4346 27.3823C12.3259 28.1394 12.6537 28.8673 13.2901 29.2823C13.3169 29.2998 13.3451 29.3151 13.3743 29.3281C13.4133 29.3455 14.3422 29.759 15.3888 30.145C16.1403 30.4222 16.5218 30.8584 16.4355 31.3418C16.3512 31.8138 15.8224 32.3155 15.0083 32.3155Z" fill="white"/>
<path d="M31.4036 29.523C31.4036 27.3148 29.6071 25.5184 27.3991 25.5184C25.1909 25.5184 23.3945 27.3149 23.3945 29.523C23.3945 31.7311 25.191 33.5275 27.3991 33.5275C29.6071 33.5275 31.4036 31.7311 31.4036 29.523ZM24.6065 29.523C24.6065 27.9831 25.8592 26.7305 27.399 26.7305C28.9387 26.7305 30.1915 27.9831 30.1915 29.523C30.1915 31.0628 28.9387 32.3155 27.399 32.3155C25.8592 32.3155 24.6065 31.0628 24.6065 29.523Z" fill="white"/>
</g>
<defs>
<clipPath id="clip0_810_1511">
<rect width="40" height="40" fill="white"/>
</clipPath>
</defs>
</svg>
