<svg width="40" height="40" viewBox="0 0 40 40" fill="none" xmlns="http://www.w3.org/2000/svg">
<g clip-path="url(#clip0_810_1478)">
<path d="M27.2901 36.4593L24.0932 39.657C24.0379 39.7122 23.7387 40.0001 23.2643 40C22.7904 39.9998 22.4916 39.7123 22.4362 39.657L16.3628 33.5836C16.443 32.0544 16.5233 30.5252 16.6036 28.996C18.1626 28.9284 19.7217 28.8606 21.2807 28.793L27.2901 34.8023C27.7478 35.2601 27.7478 36.0023 27.2901 36.4593Z" fill="#344147"/>
<path d="M15.6012 23.0969C14.7341 25.7636 13.8671 28.4303 13 31.097C10.115 32.1826 7.23 33.2682 4.34501 34.3538C3.93852 33.9473 3.53196 33.5407 3.12548 33.1343C2.83189 32.8406 1.30143 31.2508 1.30127 28.7296C1.30111 26.2078 2.83204 24.6177 3.12548 24.3241L9.15436 18.2953C9.22389 18.2234 9.51296 17.9164 9.91998 17.3992C11.3589 17.5503 12.7978 17.7013 14.2367 17.8524C14.6916 19.6006 15.1464 21.3488 15.6012 23.0969Z" fill="#F3F5FC"/>
<path d="M21.2811 28.793C20.9984 29.0166 20.7028 29.2669 20.4006 29.5461C20.0901 29.8331 19.8105 30.1156 19.56 30.3867C17.8313 32.1154 16.1027 33.844 14.3741 35.5727C14.0792 35.867 12.4893 37.3944 9.96941 37.3945C7.44895 37.3947 5.8588 35.8668 5.56396 35.5727L4.34521 34.3539L15.6014 23.0969C17.2343 23.0908 18.8673 23.0847 20.5002 23.0785C20.7605 24.9833 21.0208 26.8882 21.2811 28.793Z" fill="#DCE0EA"/>
<path d="M11.0967 26.0618L7.8998 29.2586C7.67089 29.4876 7.37089 29.6024 7.07089 29.6024C6.7709 29.6024 6.47168 29.4876 6.24277 29.2586C5.78496 28.8008 5.78496 28.0594 6.24277 27.6016L9.43964 24.4048C9.89745 23.9469 10.6396 23.9469 11.0967 24.4048C11.5545 24.8626 11.5545 25.604 11.0967 26.0618Z" fill="#43555C"/>
<path d="M14.2934 29.2586L11.0966 32.4562C10.8677 32.6843 10.5685 32.7992 10.2685 32.7992C9.96845 32.7992 9.66845 32.6843 9.43955 32.4562C8.98174 31.9984 8.98174 31.2562 9.43955 30.7984L12.6364 27.6015C13.0942 27.1437 13.8364 27.1437 14.2934 27.6015C14.7512 28.0593 14.7512 28.8008 14.2934 29.2586Z" fill="#344147"/>
<path d="M30.309 8.38916C30.0845 9.29626 29.8601 10.2034 29.6355 11.1105C28.7944 11.269 27.9532 11.4275 27.1121 11.586C25.9719 11.4541 24.8316 11.3222 23.6914 11.1902C23.842 10.3326 23.9927 9.47493 24.1434 8.61728L24.3715 8.38916C26.0081 6.75244 28.6722 6.75244 30.309 8.38916Z" fill="#FFE666"/>
<path d="M30.3092 14.3266L30.081 14.5548C29.1214 14.5636 28.1618 14.5723 27.2022 14.5812C27.1722 13.5828 27.1422 12.5844 27.1123 11.586C28.1779 10.5204 29.2435 9.45478 30.3092 8.38916C31.9466 10.0267 31.9466 12.6899 30.3092 14.3266Z" fill="#FFBB33"/>
<path d="M27.112 11.586C25.9718 14.3929 24.8316 17.1998 23.6914 20.0067C20.9975 21.0342 18.3036 22.0616 15.6097 23.0891C13.7131 21.1925 11.8166 19.2959 9.91992 17.3993C10.548 16.604 11.4551 15.3118 12.2723 13.6149C14.1566 9.70244 14.7012 5.59074 13.8894 1.39467C13.7918 0.888417 14.0363 0.378263 14.491 0.136858C14.9457 -0.104547 15.5051 -0.020954 15.8691 0.343107C19.6168 4.09075 23.3644 7.83839 27.112 11.586Z" fill="#FF4D4D"/>
<path d="M38.5613 24.2071C38.3199 24.6626 37.8098 24.9063 37.3043 24.8087C33.1075 23.9969 28.9957 24.5415 25.0833 26.4258C23.3856 27.243 22.0942 28.1508 21.2989 28.7782L15.6099 23.0891L27.1122 11.5861L38.3551 22.829C38.7191 23.193 38.8027 23.7524 38.5613 24.2071Z" fill="#E62E2E"/>
<path d="M36.0223 2.67588C35.5822 3.45283 35.1422 4.22978 34.7021 5.00673C33.8052 5.56673 32.9083 6.1268 32.0113 6.6868C31.9562 6.63164 31.668 6.33274 31.668 5.8586C31.668 5.55868 31.7824 5.25868 32.0113 5.02978L34.3652 2.67588C34.8231 2.21807 35.5653 2.21807 36.0223 2.67588Z" fill="#FFBB33"/>
<path d="M27.4644 4.77534C26.8215 4.77534 26.2925 4.24636 26.2925 3.60347V1.17199C26.2925 0.529104 26.8215 0.00012207 27.4644 0.00012207C28.1072 0.00012207 28.6362 0.529104 28.6362 1.17199V3.60347C28.6362 4.24636 28.1072 4.77534 27.4644 4.77534Z" fill="#FFBB33"/>
<path d="M37.5262 12.406H35.0947C34.4475 12.406 33.9229 11.8813 33.9229 11.2341C33.9229 10.5869 34.4475 10.0623 35.0947 10.0623H37.5262C38.1734 10.0623 38.6981 10.5869 38.6981 11.2341C38.6981 11.8813 38.1734 12.406 37.5262 12.406Z" fill="#FF9933"/>
<path d="M36.0222 4.33293L33.6683 6.68683C33.6134 6.74182 33.3142 7.03073 32.8394 7.03057C32.365 7.03042 32.0662 6.7419 32.0112 6.68683L36.0222 2.6759C36.4799 3.13371 36.4799 3.8759 36.0222 4.33293Z" fill="#FF9933"/>
</g>
<defs>
<clipPath id="clip0_810_1478">
<rect width="40" height="40" fill="white"/>
</clipPath>
</defs>
</svg>
