<svg width="116" height="17" viewBox="0 0 116 17" fill="none" xmlns="http://www.w3.org/2000/svg">
<path d="M9.34992 2.81351L10.4734 4.96851C10.557 5.12714 10.677 5.26372 10.8235 5.36706C10.97 5.47039 11.1389 5.53754 11.3164 5.56301L13.6894 5.88801C14.9584 6.06301 15.4504 7.62751 14.5119 8.49751L12.8869 9.99701C12.7484 10.1243 12.6444 10.2846 12.5847 10.463C12.525 10.6414 12.5115 10.832 12.5454 11.017L12.9419 13.216C13.1624 14.441 11.8879 15.396 10.7694 14.836L8.50142 13.711C8.34528 13.6346 8.17375 13.5949 7.99992 13.5949C7.82609 13.5949 7.65456 13.6346 7.49842 13.711L5.23042 14.836C4.11142 15.391 2.83742 14.441 3.05792 13.216L3.45442 11.0165C3.52442 10.6415 3.39442 10.2565 3.11342 9.99651L1.48792 8.49751C0.54942 7.63251 1.04142 6.06251 2.31042 5.88751L4.68342 5.56251C4.86143 5.53863 5.03103 5.47211 5.1778 5.3686C5.32458 5.2651 5.44417 5.12767 5.52642 4.96801L6.65042 2.81351C7.22242 1.72851 8.78242 1.72851 9.34942 2.81351" fill="#FCD53F"/>
<path d="M34.3499 2.81351L35.4734 4.96851C35.557 5.12714 35.677 5.26372 35.8235 5.36706C35.97 5.47039 36.1389 5.53754 36.3164 5.56301L38.6894 5.88801C39.9584 6.06301 40.4504 7.62751 39.5119 8.49751L37.8869 9.99701C37.7484 10.1243 37.6444 10.2846 37.5847 10.463C37.525 10.6414 37.5115 10.832 37.5454 11.017L37.9419 13.216C38.1624 14.441 36.8879 15.396 35.7694 14.836L33.5014 13.711C33.3453 13.6346 33.1737 13.5949 32.9999 13.5949C32.8261 13.5949 32.6546 13.6346 32.4984 13.711L30.2304 14.836C29.1114 15.391 27.8374 14.441 28.0579 13.216L28.4544 11.0165C28.5244 10.6415 28.3944 10.2565 28.1134 9.99651L26.4879 8.49751C25.5494 7.63251 26.0414 6.06251 27.3104 5.88751L29.6834 5.56251C29.8614 5.53863 30.031 5.47211 30.1778 5.3686C30.3246 5.2651 30.4442 5.12767 30.5264 4.96801L31.6504 2.81351C32.2224 1.72851 33.7824 1.72851 34.3494 2.81351" fill="#FCD53F"/>
<path d="M59.3499 2.81351L60.4734 4.96851C60.557 5.12714 60.677 5.26372 60.8235 5.36706C60.97 5.47039 61.1389 5.53754 61.3164 5.56301L63.6894 5.88801C64.9584 6.06301 65.4504 7.62751 64.5119 8.49751L62.8869 9.99701C62.7484 10.1243 62.6444 10.2846 62.5847 10.463C62.525 10.6414 62.5115 10.832 62.5454 11.017L62.9419 13.216C63.1624 14.441 61.8879 15.396 60.7694 14.836L58.5014 13.711C58.3453 13.6346 58.1737 13.5949 57.9999 13.5949C57.8261 13.5949 57.6546 13.6346 57.4984 13.711L55.2304 14.836C54.1114 15.391 52.8374 14.441 53.0579 13.216L53.4544 11.0165C53.5244 10.6415 53.3944 10.2565 53.1134 9.99651L51.4879 8.49751C50.5494 7.63251 51.0414 6.06251 52.3104 5.88751L54.6834 5.56251C54.8614 5.53863 55.031 5.47211 55.1778 5.3686C55.3246 5.2651 55.4442 5.12767 55.5264 4.96801L56.6504 2.81351C57.2224 1.72851 58.7824 1.72851 59.3494 2.81351" fill="#FCD53F"/>
<path d="M84.3499 2.81351L85.4734 4.96851C85.557 5.12714 85.677 5.26372 85.8235 5.36706C85.97 5.47039 86.1389 5.53754 86.3164 5.56301L88.6894 5.88801C89.9584 6.06301 90.4504 7.62751 89.5119 8.49751L87.8869 9.99701C87.7484 10.1243 87.6444 10.2846 87.5847 10.463C87.525 10.6414 87.5115 10.832 87.5454 11.017L87.9419 13.216C88.1624 14.441 86.8879 15.396 85.7694 14.836L83.5014 13.711C83.3453 13.6346 83.1737 13.5949 82.9999 13.5949C82.8261 13.5949 82.6546 13.6346 82.4984 13.711L80.2304 14.836C79.1114 15.391 77.8374 14.441 78.0579 13.216L78.4544 11.0165C78.5244 10.6415 78.3944 10.2565 78.1134 9.99651L76.4879 8.49751C75.5494 7.63251 76.0414 6.06251 77.3104 5.88751L79.6834 5.56251C79.8614 5.53863 80.031 5.47211 80.1778 5.3686C80.3246 5.2651 80.4442 5.12767 80.5264 4.96801L81.6504 2.81351C82.2224 1.72851 83.7824 1.72851 84.3494 2.81351" fill="#FCD53F"/>
<path d="M109.35 2.81351L110.473 4.96851C110.557 5.12714 110.677 5.26372 110.823 5.36706C110.97 5.47039 111.139 5.53754 111.316 5.56301L113.689 5.88801C114.958 6.06301 115.45 7.62751 114.512 8.49751L112.887 9.99701C112.748 10.1243 112.644 10.2846 112.585 10.463C112.525 10.6414 112.511 10.832 112.545 11.017L112.942 13.216C113.162 14.441 111.888 15.396 110.769 14.836L108.501 13.711C108.345 13.6346 108.174 13.5949 108 13.5949C107.826 13.5949 107.655 13.6346 107.498 13.711L105.23 14.836C104.111 15.391 102.837 14.441 103.058 13.216L103.454 11.0165C103.524 10.6415 103.394 10.2565 103.113 9.99651L101.488 8.49751C100.549 7.63251 101.041 6.06251 102.31 5.88751L104.683 5.56251C104.861 5.53863 105.031 5.47211 105.178 5.3686C105.325 5.2651 105.444 5.12767 105.526 4.96801L106.65 2.81351C107.222 1.72851 108.782 1.72851 109.349 2.81351" fill="#FCD53F"/>
</svg>
