<svg width="48" height="48" viewBox="0 0 48 48" fill="none" xmlns="http://www.w3.org/2000/svg">
<g clip-path="url(#clip0_807_1108)">
<path d="M6.09812 27.5729V29.9128C6.09812 30.7128 5.44956 31.3615 4.6494 31.3615C3.84934 31.3615 3.20068 30.7129 3.20068 29.9128V27.5729H6.09812Z" fill="#FFCEBF"/>
<path d="M22.519 9.3363V1.69043L33.5494 5.23587C33.8191 5.32259 33.8191 5.70415 33.5494 5.79077L22.519 9.3363Z" fill="#FEA95C"/>
<path d="M22.519 0C22.1307 0 21.8159 0.314719 21.8159 0.703125V43.3644C21.8159 43.7528 22.1307 44.0676 22.519 44.0676C22.9074 44.0676 23.2222 43.7528 23.2222 43.3644V0.703125C23.2222 0.314719 22.9074 0 22.519 0Z" fill="#A79BA7"/>
<path d="M48.0002 13.9161V35.1246C48.0002 35.6688 47.5597 36.1098 47.0163 36.1098H33.0182C32.4749 36.1098 32.0343 35.6688 32.0343 35.1246V23.3834L27.6553 21.1278C27.4821 21.0382 27.4821 20.7906 27.6553 20.7011L32.0343 18.4445V13.9161C32.0343 13.372 32.4749 12.9309 33.0182 12.9309H47.0163C47.5597 12.9309 48.0002 13.372 48.0002 13.9161Z" fill="#F9F3F1"/>
<path d="M47.0163 12.9309H44.1309C44.6742 12.9309 45.1148 13.372 45.1148 13.9162V35.1247C45.1148 35.6688 44.6742 36.1099 44.1309 36.1099H47.0163C47.5597 36.1099 48.0002 35.6688 48.0002 35.1247V13.9161C48.0002 13.372 47.5597 12.9309 47.0163 12.9309Z" fill="#F3EAE6"/>
<path d="M44.7587 33.2931H35.5607C35.3473 33.2931 35.1743 33.1202 35.1743 32.9068V28.6387C35.1743 28.4253 35.3473 28.2524 35.5607 28.2524H44.7587C44.972 28.2524 45.145 28.4253 45.145 28.6387V32.9068C45.145 33.1203 44.972 33.2931 44.7587 33.2931Z" fill="#CB97E7"/>
<path d="M44.7587 28.2525H41.8613C42.0747 28.2525 42.2477 28.4255 42.2477 28.6388V32.9069C42.2477 33.1203 42.0747 33.2933 41.8613 33.2933H44.7587C44.972 33.2933 45.145 33.1203 45.145 32.9069V28.6388C45.145 28.4254 44.972 28.2525 44.7587 28.2525Z" fill="#BD80E1"/>
<path d="M35.8271 17.4151H38.68C39.0684 17.4151 39.3831 17.1004 39.3831 16.712C39.3831 16.3236 39.0684 16.0089 38.68 16.0089H35.8271C35.4387 16.0089 35.124 16.3236 35.124 16.712C35.124 17.1004 35.4388 17.4151 35.8271 17.4151Z" fill="#A79BA7"/>
<path d="M35.8271 19.9707H43.9676C44.356 19.9707 44.6707 19.656 44.6707 19.2676C44.6707 18.8792 44.356 18.5645 43.9676 18.5645H35.8271C35.4387 18.5645 35.124 18.8792 35.124 19.2676C35.124 19.656 35.4388 19.9707 35.8271 19.9707Z" fill="#A79BA7"/>
<path d="M43.9676 21.1201H35.8271C35.4387 21.1201 35.124 21.4348 35.124 21.8232C35.124 22.2116 35.4387 22.5264 35.8271 22.5264H43.9676C44.356 22.5264 44.6707 22.2116 44.6707 21.8232C44.6707 21.4348 44.356 21.1201 43.9676 21.1201Z" fill="#A79BA7"/>
<path d="M41.3223 23.6757H35.8271C35.4387 23.6757 35.124 23.9904 35.124 24.3788C35.124 24.7673 35.4387 25.082 35.8271 25.082H41.3223C41.7107 25.082 42.0254 24.7673 42.0254 24.3788C42.0254 23.9904 41.7106 23.6757 41.3223 23.6757Z" fill="#A79BA7"/>
<path d="M6.09814 17.5077H14.7903V27.112H6.09814V17.5077Z" fill="#FE646F"/>
<path d="M11.8931 17.5077H14.7904V27.112H11.8931V17.5077Z" fill="#FD4755"/>
<path d="M14.7903 27.1121V42.3118C14.7903 42.6383 14.5257 42.9028 14.1993 42.9028H12.4838C12.1574 42.9028 11.8928 42.6383 11.8928 42.3118V31.4581C11.8928 30.6581 11.2443 30.0094 10.4441 30.0094C9.64405 30.0094 8.9954 30.658 8.9954 31.4581V42.3118C8.9954 42.6383 8.73083 42.9028 8.4044 42.9028H6.68914C6.36271 42.9028 6.09814 42.6383 6.09814 42.3118V27.1121H14.7903Z" fill="#CB97E7"/>
<path d="M11.8931 27.1121V42.3118C11.8931 42.6383 12.1576 42.9028 12.4841 42.9028H14.1995C14.5259 42.9028 14.7905 42.6383 14.7905 42.3118V27.1121H11.8931Z" fill="#BD80E1"/>
<path d="M8.40449 42.9027H6.68914C6.36271 42.9027 6.09814 42.6381 6.09814 42.3117V41.2609C6.09814 40.4608 6.74671 39.8121 7.54686 39.8121C8.34693 39.8121 8.99558 40.4607 8.99558 41.2609V42.3117C8.99549 42.6381 8.73093 42.9027 8.40449 42.9027Z" fill="#A79BA7"/>
<path d="M14.1995 42.9027H12.4841C12.1576 42.9027 11.8931 42.6381 11.8931 42.3117V41.2609C11.8931 40.4608 12.5416 39.8121 13.3418 39.8121C14.1418 39.8121 14.7905 40.4607 14.7905 41.2609V42.3117C14.7905 42.6381 14.5259 42.9027 14.1995 42.9027Z" fill="#A79BA7"/>
<path d="M10.4443 19.4393C9.64426 19.4393 8.99561 18.7908 8.99561 17.9906V14.6104H11.8929V17.9906C11.893 18.7907 11.2444 19.4393 10.4443 19.4393Z" fill="#FFB09E"/>
<path d="M10.4442 16.4453C8.844 16.4453 7.54688 15.1481 7.54688 13.548V12.0027C7.54688 10.4025 8.84409 9.10535 10.4442 9.10535C12.0444 9.10535 13.3416 10.4026 13.3416 12.0027V13.548C13.3416 15.1481 12.0444 16.4453 10.4442 16.4453Z" fill="#FFCEBF"/>
<path d="M10.4443 9.10529C9.91642 9.10529 9.42189 9.24722 8.99561 9.49388C9.86139 9.99488 10.4443 10.9304 10.4443 12.0027V13.548C10.4443 14.6202 9.86139 15.5558 8.99561 16.0568C9.42189 16.3035 9.91632 16.4454 10.4443 16.4454C12.0445 16.4454 13.3417 15.1482 13.3417 13.5481V12.0028C13.3417 10.4025 12.0445 9.10529 10.4443 9.10529Z" fill="#FFB09E"/>
<path d="M19.8228 27.112H22.6183C23.4183 27.112 24.067 26.4635 24.067 25.6633C24.067 24.8633 23.4184 24.2146 22.6183 24.2146H19.8228V27.112Z" fill="#FFCEBF"/>
<path d="M3.20068 28.2656V19.6324C3.20068 18.459 4.15196 17.5077 5.32543 17.5077H6.09803V28.2656H3.20068Z" fill="#BD80E1"/>
<path d="M8.30559 12.0027H12.5829C13.0624 12.0027 13.4657 11.6427 13.5184 11.1661C13.6426 10.0432 13.4005 8.18787 10.4442 8.18787C7.4879 8.18787 7.24584 10.0433 7.37006 11.1661C7.42284 11.6426 7.82615 12.0027 8.30559 12.0027Z" fill="#E49280"/>
<path d="M10.4443 8.18774C9.86148 8.18774 9.38551 8.26068 8.99561 8.38509C10.5831 8.89171 10.7208 10.2645 10.621 11.166C10.5684 11.6425 10.165 12.0026 9.68561 12.0026H12.5829C13.0624 12.0026 13.4657 11.6426 13.5184 11.166C13.6427 10.0432 13.4006 8.18774 10.4443 8.18774Z" fill="#DD7F66"/>
<path d="M33.9437 48H1.01812C0.455812 48 0 47.5442 0 46.9819V45.1146C0 43.8278 1.04316 42.7847 2.32997 42.7847H32.6317C33.9186 42.7847 34.9617 43.8278 34.9617 45.1146V46.9819C34.9618 47.5442 34.5059 48 33.9437 48Z" fill="#E49280"/>
<path d="M32.6317 42.7847H29.7344C31.0212 42.7847 32.0643 43.8278 32.0643 45.1146V46.9819C32.0643 47.5441 31.6085 48 31.0462 48H33.9436C34.5059 48 34.9617 47.5442 34.9617 46.9819V45.1146C34.9618 43.8278 33.9185 42.7847 32.6317 42.7847Z" fill="#DD7F66"/>
<path d="M20.9712 24.2146V27.112H16.236C15.4375 27.112 14.79 26.4646 14.79 25.6661V17.5081H15.5626C16.7361 17.5081 17.6874 18.4594 17.6874 19.6329V23.8632C17.6874 24.0573 17.8447 24.2146 18.0388 24.2146H20.9712Z" fill="#BD80E1"/>
</g>
<defs>
<clipPath id="clip0_807_1108">
<rect width="48" height="48" fill="white"/>
</clipPath>
</defs>
</svg>
