<svg width="107" height="109" viewBox="0 0 107 109" fill="none" xmlns="http://www.w3.org/2000/svg">
<path d="M83.7443 0V14.3211H15.7189V68.4232H69.821V47.7371H83.7443V81.5509H1V0H83.7443Z" fill="url(#paint0_linear_832_424)"/>
<g filter="url(#filter0_d_832_424)">
<path d="M48.7373 48.5323V35.0068H102.839V48.5323H48.7373Z" fill="url(#paint1_linear_832_424)"/>
</g>
<path d="M10.2581 97.1655H10.3581V97.0655V91.337V91.237H10.2581H6.55486H6.45486V91.337V93.2465V93.3465H6.55486H8.30648V95.056H2.95162V89.5276H10.2581H10.3581V89.4276V87.5181V87.4181H10.2581H1H0.9V87.5181V97.0655V97.1655H1H10.2581ZM25.7223 93.3465H28.7743H28.8743V93.2465V87.5181V87.4181H28.7743H19.5162H19.4162V87.5181V97.0655V97.1655H19.5162H21.3678H21.4678V97.0655V93.3465H23.1734L26.4128 97.1305L26.4427 97.1655H26.4887H28.7743H28.9916L28.8503 97.0005L25.7223 93.3465ZM47.3905 95.156V95.056H47.2905H39.984V93.3465H45.4389H45.5389V93.2465V91.337V91.237H45.4389H39.984V89.5276H47.2905H47.3905V89.4276V87.5181V87.4181H47.2905H38.0324H37.9324V87.5181V97.0655V97.1655H38.0324H47.2905H47.3905V97.0655V95.156ZM65.9067 95.156V95.056H65.8067H58.5002V93.3465H63.9551H64.0551V93.2465V91.337V91.237H63.9551H58.5002V89.5276H65.8067H65.9067V89.4276V87.5181V87.4181H65.8067H56.5486H56.4486V87.5181V97.0655V97.1655H56.5486H65.8067H65.9067V97.0655V95.156ZM74.9648 97.0655V97.1655H75.0648H76.9165H77.0165V97.0655V90.7746L82.395 97.1301L82.4249 97.1655H82.4713H84.3229H84.4229V97.0655V87.5181V87.4181H84.3229H82.4713H82.3713V87.5181V94.0112L76.9938 87.4546L76.9638 87.4181H76.9165H75.0648H74.9648V87.5181V97.0655ZM102.839 89.5276H102.939V89.4276V87.5181V87.4181H102.839H93.581H93.481V87.5181V93.2465V93.3465H93.581H100.888V95.056H93.581H93.481V95.156V97.0655V97.1655H93.581H102.839H102.939V97.0655V91.337V91.237H102.839H95.5327V89.5276H102.839ZM26.8227 91.237H21.4678V89.5276H26.8227V91.237Z" fill="white" stroke="white" stroke-width="0.2"/>
<path d="M4.32617 103.505V108.926H3.36426V103.505H4.32617ZM6.6955 103.505V104.093H1V103.505H6.6955Z" fill="#BF9B42"/>
<path d="M14.9604 108.341V108.926H11.0571V108.341H14.9604ZM11.2545 103.505V108.926H10.2774V103.505H11.2545ZM14.444 105.836V106.42H11.0571V105.836H14.444ZM14.9098 103.505V104.093H11.0571V103.505H14.9098Z" fill="#BF9B42"/>
<path d="M23.1089 107.202H24.0809C24.0303 107.544 23.8969 107.851 23.6809 108.121C23.4649 108.392 23.1595 108.607 22.7646 108.765C22.3697 108.922 21.8769 109 21.2863 109C20.8543 109 20.4611 108.94 20.1067 108.821C19.7557 108.702 19.4536 108.533 19.2005 108.315C18.9473 108.094 18.7516 107.83 18.6132 107.522C18.4782 107.212 18.4107 106.867 18.4107 106.487V105.947C18.4107 105.568 18.4782 105.224 18.6132 104.916C18.7516 104.606 18.949 104.34 19.2055 104.119C19.4654 103.898 19.7776 103.728 20.1421 103.609C20.5066 103.49 20.9167 103.431 21.3724 103.431C21.9293 103.431 22.4001 103.508 22.7848 103.661C23.1696 103.815 23.4683 104.029 23.6809 104.302C23.8969 104.572 24.0303 104.886 24.0809 105.244H23.1089C23.0616 104.991 22.9739 104.773 22.8456 104.592C22.7173 104.409 22.5351 104.267 22.2988 104.168C22.0626 104.069 21.7538 104.019 21.3724 104.019C21.045 104.019 20.7564 104.065 20.5066 104.157C20.2603 104.248 20.0527 104.379 19.8839 104.548C19.7186 104.716 19.5937 104.919 19.5093 105.154C19.4249 105.39 19.3827 105.652 19.3827 105.94V106.487C19.3827 106.753 19.4199 107.002 19.4941 107.235C19.5717 107.469 19.6882 107.673 19.8434 107.85C19.9987 108.026 20.1961 108.165 20.4358 108.267C20.6754 108.366 20.9589 108.416 21.2863 108.416C21.7014 108.416 22.0322 108.367 22.2786 108.27C22.525 108.174 22.7106 108.035 22.8355 107.853C22.9637 107.672 23.0549 107.455 23.1089 107.202Z" fill="#BF9B42"/>
<path d="M32.7154 105.836V106.42H28.726V105.836H32.7154ZM28.8779 103.505V108.926H27.9008V103.505H28.8779ZM33.5659 103.505V108.926H32.5939V103.505H33.5659Z" fill="#BF9B42"/>
<path d="M43.461 103.505V108.926H42.4788L38.7679 104.745V108.926H37.7908V103.505H38.7679L42.494 107.697V103.505H43.461Z" fill="#BF9B42"/>
<path d="M53.3561 106.044V106.387C53.3561 106.794 53.2869 107.158 53.1485 107.481C53.0101 107.804 52.811 108.078 52.5511 108.304C52.2912 108.53 51.979 108.702 51.6145 108.821C51.2534 108.94 50.8483 109 50.3995 109C49.9641 109 49.5641 108.94 49.1996 108.821C48.8385 108.702 48.5246 108.53 48.2579 108.304C47.9947 108.078 47.7905 107.804 47.6454 107.481C47.5002 107.158 47.4277 106.794 47.4277 106.387V106.044C47.4277 105.637 47.4986 105.273 47.6403 104.953C47.7854 104.631 47.9896 104.356 48.2529 104.131C48.5161 103.902 48.8283 103.728 49.1895 103.609C49.554 103.49 49.9539 103.431 50.3893 103.431C50.8382 103.431 51.2432 103.49 51.6044 103.609C51.9689 103.728 52.2811 103.902 52.541 104.131C52.8042 104.356 53.005 104.631 53.1434 104.953C53.2852 105.273 53.3561 105.637 53.3561 106.044ZM52.3891 106.387V106.037C52.3891 105.714 52.3435 105.429 52.2524 105.18C52.1646 104.932 52.0347 104.724 51.8626 104.555C51.6904 104.386 51.4795 104.258 51.2297 104.172C50.9834 104.085 50.7032 104.041 50.3893 104.041C50.0856 104.041 49.8105 104.085 49.5641 104.172C49.3211 104.258 49.1119 104.386 48.9363 104.555C48.7642 104.724 48.6309 104.932 48.5364 105.18C48.4419 105.429 48.3946 105.714 48.3946 106.037V106.387C48.3946 106.712 48.4419 107 48.5364 107.25C48.6309 107.498 48.7659 107.708 48.9414 107.879C49.1203 108.048 49.3312 108.176 49.5742 108.263C49.8206 108.35 50.0957 108.393 50.3995 108.393C50.7167 108.393 50.9985 108.35 51.2449 108.263C51.4913 108.176 51.6989 108.048 51.8676 107.879C52.0398 107.708 52.1697 107.498 52.2575 107.25C52.3452 107 52.3891 106.712 52.3891 106.387Z" fill="#BF9B42"/>
<path d="M61.7779 108.341V108.926H58.0923V108.341H61.7779ZM58.2847 103.505V108.926H57.3076V103.505H58.2847Z" fill="#BF9B42"/>
<path d="M70.7263 106.044V106.387C70.7263 106.794 70.6571 107.158 70.5187 107.481C70.3803 107.804 70.1812 108.078 69.9213 108.304C69.6614 108.53 69.3492 108.702 68.9847 108.821C68.6236 108.94 68.2186 109 67.7697 109C67.3343 109 66.9343 108.94 66.5698 108.821C66.2087 108.702 65.8948 108.53 65.6282 108.304C65.3649 108.078 65.1607 107.804 65.0156 107.481C64.8704 107.158 64.7979 106.794 64.7979 106.387V106.044C64.7979 105.637 64.8688 105.273 65.0105 104.953C65.1556 104.631 65.3598 104.356 65.6231 104.131C65.8864 103.902 66.1985 103.728 66.5597 103.609C66.9242 103.49 67.3242 103.431 67.7595 103.431C68.2084 103.431 68.6134 103.49 68.9746 103.609C69.3391 103.728 69.6513 103.902 69.9112 104.131C70.1744 104.356 70.3753 104.631 70.5136 104.953C70.6554 105.273 70.7263 105.637 70.7263 106.044ZM69.7593 106.387V106.037C69.7593 105.714 69.7137 105.429 69.6226 105.18C69.5349 104.932 69.4049 104.724 69.2328 104.555C69.0606 104.386 68.8497 104.258 68.5999 104.172C68.3536 104.085 68.0734 104.041 67.7595 104.041C67.4558 104.041 67.1807 104.085 66.9343 104.172C66.6913 104.258 66.4821 104.386 66.3066 104.555C66.1344 104.724 66.0011 104.932 65.9066 105.18C65.8121 105.429 65.7648 105.714 65.7648 106.037V106.387C65.7648 106.712 65.8121 107 65.9066 107.25C66.0011 107.498 66.1361 107.708 66.3116 107.879C66.4905 108.048 66.7014 108.176 66.9445 108.263C67.1908 108.35 67.4659 108.393 67.7697 108.393C68.0869 108.393 68.3688 108.35 68.6151 108.263C68.8615 108.176 69.0691 108.048 69.2378 107.879C69.41 107.708 69.5399 107.498 69.6277 107.25C69.7154 107 69.7593 106.712 69.7593 106.387Z" fill="#BF9B42"/>
<path d="M80.1252 106.226V108.211C80.0341 108.31 79.8889 108.422 79.6898 108.546C79.4907 108.667 79.2156 108.774 78.8646 108.866C78.517 108.955 78.0681 109 77.5179 109C77.069 109 76.6556 108.943 76.2776 108.829C75.9029 108.712 75.5772 108.543 75.3005 108.322C75.0271 108.099 74.8145 107.829 74.6626 107.511C74.5141 107.191 74.4398 106.828 74.4398 106.424V106.003C74.4398 105.599 74.504 105.237 74.6322 104.92C74.7638 104.602 74.9562 104.333 75.2094 104.112C75.4625 103.889 75.773 103.72 76.1409 103.606C76.5088 103.489 76.9307 103.431 77.4065 103.431C77.9702 103.431 78.441 103.503 78.819 103.647C79.2004 103.788 79.4974 103.984 79.7101 104.235C79.9261 104.485 80.0644 104.771 80.1252 105.091H79.1481C79.1042 104.895 79.0165 104.716 78.8848 104.555C78.7566 104.394 78.5726 104.265 78.333 104.168C78.0934 104.069 77.7846 104.019 77.4065 104.019C77.0657 104.019 76.7703 104.065 76.5206 104.157C76.2708 104.248 76.0649 104.38 75.9029 104.551C75.7409 104.722 75.6194 104.93 75.5384 105.173C75.4608 105.416 75.422 105.69 75.422 105.996V106.424C75.422 106.737 75.4709 107.016 75.5688 107.261C75.6701 107.507 75.8135 107.717 75.9991 107.891C76.1848 108.062 76.4058 108.192 76.6623 108.281C76.9222 108.371 77.2091 108.416 77.523 108.416C77.8706 108.416 78.1524 108.394 78.3685 108.352C78.5845 108.308 78.7532 108.255 78.8747 108.196C78.9962 108.134 79.089 108.075 79.1532 108.021V106.807H77.447V106.226H80.1252Z" fill="#BF9B42"/>
<path d="M85.2816 103.505V108.926H84.3045V103.505H85.2816Z" fill="#BF9B42"/>
<path d="M94.23 108.341V108.926H90.3267V108.341H94.23ZM90.5241 103.505V108.926H89.547V103.505H90.5241ZM93.7136 105.836V106.42H90.3267V105.836H93.7136ZM94.1794 103.505V104.093H90.3267V103.505H94.1794Z" fill="#BF9B42"/>
<path d="M101.857 107.556C101.857 107.429 101.83 107.317 101.776 107.22C101.725 107.121 101.634 107.032 101.503 106.952C101.374 106.873 101.195 106.797 100.966 106.725C100.74 106.653 100.453 106.58 100.105 106.506C99.7408 106.426 99.4117 106.338 99.1181 106.241C98.8245 106.142 98.573 106.029 98.3638 105.903C98.1545 105.776 97.9942 105.631 97.8828 105.467C97.7714 105.303 97.7157 105.116 97.7157 104.905C97.7157 104.694 97.7748 104.499 97.8929 104.32C98.0111 104.142 98.1798 103.987 98.3992 103.855C98.6219 103.721 98.8869 103.617 99.194 103.542C99.5012 103.468 99.8437 103.431 100.222 103.431C100.775 103.431 101.244 103.509 101.629 103.665C102.017 103.819 102.313 104.021 102.515 104.272C102.718 104.52 102.819 104.786 102.819 105.069H101.847C101.847 104.865 101.788 104.685 101.67 104.529C101.552 104.37 101.373 104.246 101.133 104.157C100.893 104.065 100.59 104.019 100.222 104.019C99.8741 104.019 99.5872 104.057 99.3611 104.134C99.135 104.211 98.9662 104.315 98.8548 104.447C98.7468 104.579 98.6928 104.729 98.6928 104.897C98.6928 105.012 98.7249 105.116 98.789 105.21C98.8565 105.302 98.9595 105.388 99.0978 105.467C99.2396 105.546 99.4185 105.62 99.6345 105.687C99.8539 105.754 100.115 105.818 100.419 105.88C100.838 105.967 101.199 106.064 101.503 106.171C101.806 106.277 102.056 106.398 102.252 106.532C102.451 106.663 102.598 106.813 102.692 106.982C102.79 107.149 102.839 107.337 102.839 107.548C102.839 107.769 102.778 107.969 102.657 108.147C102.535 108.326 102.362 108.479 102.135 108.605C101.909 108.732 101.638 108.83 101.32 108.899C101.006 108.966 100.655 109 100.267 109C99.9264 109 99.5906 108.965 99.2598 108.896C98.9325 108.826 98.6338 108.722 98.3638 108.583C98.0971 108.444 97.8828 108.273 97.7208 108.069C97.5622 107.863 97.4828 107.625 97.4828 107.355H98.4549C98.4549 107.541 98.5038 107.701 98.6017 107.835C98.6996 107.966 98.8329 108.075 99.0016 108.162C99.1738 108.249 99.3679 108.314 99.5839 108.356C99.8032 108.396 100.031 108.416 100.267 108.416C100.608 108.416 100.897 108.381 101.133 108.311C101.369 108.242 101.548 108.143 101.67 108.013C101.795 107.884 101.857 107.732 101.857 107.556Z" fill="#BF9B42"/>
<defs>
<filter id="filter0_d_832_424" x="44.7373" y="35.0068" width="62.1021" height="25.5254" filterUnits="userSpaceOnUse" color-interpolation-filters="sRGB">
<feFlood flood-opacity="0" result="BackgroundImageFix"/>
<feColorMatrix in="SourceAlpha" type="matrix" values="0 0 0 0 0 0 0 0 0 0 0 0 0 0 0 0 0 0 127 0" result="hardAlpha"/>
<feOffset dy="8"/>
<feGaussianBlur stdDeviation="2"/>
<feComposite in2="hardAlpha" operator="out"/>
<feColorMatrix type="matrix" values="0 0 0 0 0 0 0 0 0 0 0 0 0 0 0 0 0 0 0.59 0"/>
<feBlend mode="normal" in2="BackgroundImageFix" result="effect1_dropShadow_832_424"/>
<feBlend mode="normal" in="SourceGraphic" in2="effect1_dropShadow_832_424" result="shape"/>
</filter>
<linearGradient id="paint0_linear_832_424" x1="1" y1="0" x2="83.7443" y2="81.9487" gradientUnits="userSpaceOnUse">
<stop stop-color="#8C421D"/>
<stop offset="0.315" stop-color="#FBE67B"/>
<stop offset="0.48" stop-color="#FCFBE7"/>
<stop offset="0.655" stop-color="#F7D14E"/>
<stop offset="0.835" stop-color="#D4A041"/>
<stop offset="0.995" stop-color="#D4A041"/>
</linearGradient>
<linearGradient id="paint1_linear_832_424" x1="48.7373" y1="35.0068" x2="102.839" y2="48.5323" gradientUnits="userSpaceOnUse">
<stop stop-color="#8C421D"/>
<stop offset="0.265" stop-color="#FBE67B"/>
<stop offset="0.46" stop-color="#FCFBE7"/>
<stop offset="0.695" stop-color="#F7D14E"/>
<stop offset="1" stop-color="#D4A041"/>
</linearGradient>
</defs>
</svg>
