<svg width="50" height="50" viewBox="0 0 50 50" fill="none" xmlns="http://www.w3.org/2000/svg">
<g clip-path="url(#clip0_803_770)">
<path d="M41.8126 33.5938C40.2439 32.4558 38.4196 31.7207 36.5001 31.4531L30.4688 27.7656C30.4688 27.2109 30.4688 26.75 30.4142 26.4453C32.0657 25.0715 33.1213 23.1116 33.3595 20.9766C33.3672 20.9207 33.3955 20.8697 33.4389 20.8335C33.4822 20.7974 33.5375 20.7788 33.5938 20.7813C34.0559 20.7813 34.499 20.5977 34.8258 20.271C35.1525 19.9443 35.336 19.5011 35.336 19.0391V12.8906H35.3829C35.5901 12.8906 35.7888 12.8083 35.9353 12.6618C36.0818 12.5153 36.1642 12.3166 36.1642 12.1094V8.59375L41.2267 7.03125C41.3676 6.97122 41.4878 6.87108 41.5722 6.74328C41.6567 6.61549 41.7017 6.46569 41.7017 6.3125C41.7017 6.15932 41.6567 6.00952 41.5722 5.88172C41.4878 5.75393 41.3676 5.65379 41.2267 5.59375L25.2501 0.0390659C25.0879 -0.0157075 24.9123 -0.0157075 24.7501 0.0390659L8.8126 5.58594H8.76572C8.69751 5.61833 8.63435 5.66043 8.57822 5.71094C8.522 5.76878 8.47461 5.83459 8.4376 5.90625C8.39488 5.99963 8.37098 6.10051 8.36728 6.20313V16.0859C7.96821 16.1652 7.59823 16.3515 7.29697 16.625C6.85559 17.1227 6.62576 17.773 6.65635 18.4375C6.62615 19.0996 6.85606 19.7473 7.29697 20.2422C7.59568 20.5208 7.96645 20.7103 8.36728 20.7891V22.0234C8.40962 22.1924 8.50719 22.3423 8.64449 22.4494C8.78179 22.5566 8.95094 22.6148 9.1251 22.6148C9.29925 22.6148 9.46841 22.5566 9.60571 22.4494C9.74301 22.3423 9.84057 22.1924 9.88291 22.0234V20.7813C10.2801 20.7033 10.6479 20.5167 10.9454 20.2422C11.3863 19.7473 11.6162 19.0996 11.586 18.4375C11.6166 17.773 11.3868 17.1227 10.9454 16.625C10.6461 16.3531 10.2791 16.1669 9.88291 16.0859V7.33594L13.8985 8.59375V12.125C13.8985 12.3322 13.9808 12.5309 14.1274 12.6774C14.2739 12.8239 14.4726 12.9063 14.6798 12.9063H14.7267V19.0547C14.7267 19.5167 14.9102 19.9599 15.2369 20.2866C15.5637 20.6133 16.0068 20.7969 16.4688 20.7969C16.5225 20.7982 16.574 20.8186 16.6141 20.8544C16.6542 20.8901 16.6802 20.939 16.6876 20.9922C16.929 23.1262 17.9839 25.085 19.6329 26.4609C19.5752 26.8936 19.5413 27.3292 19.5313 27.7656L13.4767 31.4297C11.5621 31.7035 9.74502 32.447 8.1876 33.5938C4.5626 36.3516 4.98447 41.7344 5.32822 46.0938L5.39072 46.875C5.45925 47.7241 5.84416 48.5165 6.46922 49.0952C7.09427 49.674 7.91388 49.9969 8.76572 50H41.2345C42.0868 49.9987 42.9074 49.6764 43.5329 49.0973C44.1583 48.5182 44.5427 47.7248 44.6095 46.875L44.6798 46C45.0157 41.6797 45.4298 36.3125 41.8126 33.5938ZM10.0079 18.4375C10.0293 18.6975 9.96031 18.9569 9.8126 19.1719C9.58168 19.2991 9.32233 19.3658 9.05869 19.3658C8.79505 19.3658 8.5357 19.2991 8.30478 19.1719C8.17663 18.9483 8.10921 18.6952 8.10921 18.4375C8.10921 18.1798 8.17663 17.9267 8.30478 17.7031C8.53338 17.5465 8.81063 17.4772 9.08603 17.5078C9.36149 17.4765 9.63898 17.5459 9.86728 17.7031C9.99592 17.9249 10.0455 18.1839 10.0079 18.4375ZM34.7501 32.1406L28.211 36.0469C29.3861 34.0328 30.1136 31.7892 30.3438 29.4688L34.7501 32.1406ZM21.5626 31.4375C21.2351 30.1299 21.0775 28.7854 21.0938 27.4375C22.297 28.0757 23.6382 28.4094 25.0001 28.4094C26.362 28.4094 27.7032 28.0757 28.9063 27.4375C28.9198 28.7909 28.7597 30.1405 28.4298 31.4531C26.1698 31.9742 23.8202 31.9689 21.5626 31.4375ZM27.9142 33.125C27.276 34.8715 26.2839 36.4674 25.0001 37.8125C23.7166 36.4642 22.72 34.8695 22.0704 33.125C23.1196 33.3155 24.1837 33.4123 25.2501 33.4141C26.1451 33.4 27.0369 33.3033 27.9142 33.125ZM33.7813 15.4063H32.7423C32.4867 15.4042 32.2423 15.3012 32.0623 15.1198C31.8823 14.9383 31.7813 14.6931 31.7813 14.4375V12.875H33.7813V15.4063ZM14.5548 7.21875L11.4767 6.25L25.0001 1.5625L38.5235 6.25L35.3048 7.26563C30.088 6.1053 24.7118 5.84112 19.4063 6.48438H19.1642C17.6078 6.58135 16.0643 6.82727 14.5548 7.21875ZM15.4142 11.375V8.53907C16.7057 8.28783 18.0096 8.10528 19.3204 7.99219H19.5782C24.5824 7.39522 29.6508 7.63016 34.5782 8.6875V11.4063H15.4142V11.375ZM18.2188 12.8906V14.4531C18.2189 14.7087 18.1179 14.9539 17.9379 15.1354C17.7579 15.3168 17.5135 15.4198 17.2579 15.4219H16.2188V12.8906H18.2188ZM18.172 20.8047C18.1276 20.3771 17.9268 19.981 17.6081 19.6926C17.2894 19.4042 16.8753 19.2438 16.4454 19.2422C16.3853 19.2422 16.3277 19.2183 16.2852 19.1758C16.2427 19.1333 16.2188 19.0757 16.2188 19.0156V16.9141H17.2579C17.9147 16.9141 18.5447 16.6531 19.0091 16.1887C19.4735 15.7243 19.7345 15.0943 19.7345 14.4375V12.875H30.2657V14.4375C30.2657 15.0943 30.5266 15.7243 30.9911 16.1887C31.4555 16.6531 32.0855 16.9141 32.7423 16.9141H33.7813V19.0391C33.7813 19.0992 33.7575 19.1568 33.715 19.1993C33.6725 19.2418 33.6149 19.2656 33.5548 19.2656C33.1253 19.2656 32.7112 19.4257 32.3934 19.7146C32.0756 20.0036 31.8768 20.4006 31.836 20.8281C31.6473 22.508 30.8463 24.0595 29.586 25.1862C28.3257 26.3129 26.6945 26.9357 25.004 26.9357C23.3135 26.9357 21.6823 26.3129 20.422 25.1862C19.1617 24.0595 18.3607 22.508 18.172 20.8281V20.8047ZM19.6563 29.4766C19.8866 31.797 20.614 34.0406 21.7892 36.0547L15.2501 32.1484L19.6563 29.4766ZM43.172 45.8828L43.1017 46.7656C43.0644 47.2354 42.8515 47.6739 42.5055 47.9938C42.1595 48.3138 41.7057 48.4917 41.2345 48.4922H38.422V44.75C38.3796 44.5811 38.2821 44.4311 38.1448 44.324C38.0075 44.2169 37.8383 44.1587 37.6642 44.1587C37.49 44.1587 37.3208 44.2169 37.1835 44.324C37.0462 44.4311 36.9487 44.5811 36.9063 44.75V48.4844H13.0938V44.75C13.0515 44.5811 12.9539 44.4311 12.8166 44.324C12.6793 44.2169 12.5102 44.1587 12.336 44.1587C12.1619 44.1587 11.9927 44.2169 11.8554 44.324C11.7181 44.4311 11.6206 44.5811 11.5782 44.75V48.4844H8.76572C8.29529 48.4837 7.84243 48.3056 7.4977 47.9855C7.15297 47.6653 6.94178 47.2269 6.90635 46.7578L6.83603 45.9141C6.50791 41.75 6.14072 37.0313 9.10166 34.7734C10.4484 33.8076 12.008 33.1805 13.6485 32.9453L24.586 39.5078H24.6563H24.7188H24.7657H24.9298H25.0001H25.1642H25.211H25.2735H25.3517L36.2892 32.9531C37.9313 33.1822 39.4924 33.8099 40.836 34.7813C43.8517 37.0234 43.4923 41.7266 43.172 45.875V45.8828Z" fill="black"/>
</g>
<defs>
<clipPath id="clip0_803_770">
<rect width="50" height="50" fill="white"/>
</clipPath>
</defs>
</svg>
