<svg width="48" height="48" viewBox="0 0 48 48" fill="none" xmlns="http://www.w3.org/2000/svg">
<path d="M27.3423 5.05695H20.6576C18.9191 5.05695 17.5098 6.46629 17.5098 8.20479V14.6675H30.49V8.20479C30.4901 6.46629 29.0808 5.05695 27.3423 5.05695Z" fill="#FE76A8"/>
<path d="M24.0569 5.05688C22.3185 5.05688 20.9093 6.46595 20.9093 8.20445V14.6676H17.5098V8.20445C17.5098 6.46604 18.9188 5.05688 20.6573 5.05688H24.0569Z" fill="#FE5694"/>
<path d="M27.843 3.84288C27.843 5.96566 26.1229 7.68672 24.0001 7.68672C21.8774 7.68672 20.1572 5.96566 20.1572 3.84288C20.1572 3.33588 20.2558 2.85194 20.4344 2.40869C21.9979 3.04938 22.3844 2.69632 24.0001 2.69632C25.6159 2.69632 25.7886 3.15991 27.5658 2.40869C27.7445 2.85194 27.843 3.33579 27.843 3.84288Z" fill="#FFDFCF"/>
<path d="M27.5655 2.40872C26.9976 3.82162 25.6156 4.81838 23.9998 4.81838C22.384 4.81838 21.0019 3.82172 20.4341 2.40872C21.0019 0.996656 22.384 0 23.9998 0C25.6156 0 26.9976 0.996656 27.5655 2.40872Z" fill="#7A6D79"/>
<path d="M27.3423 42.9431H20.6576C18.9191 42.9431 17.5098 41.5337 17.5098 39.7952V33.3325H30.49V39.7952C30.4901 41.5337 29.0808 42.9431 27.3423 42.9431Z" fill="#8AC9FE"/>
<path d="M24.0569 42.9431C22.3185 42.9431 20.9093 41.5341 20.9093 39.7956V33.3325H17.5098V39.7956C17.5098 41.534 18.9188 42.9431 20.6573 42.9431H24.0569Z" fill="#60B7FF"/>
<path d="M27.8426 44.1571C27.8426 42.0343 26.1224 40.3132 23.9996 40.3132C21.8769 40.3132 20.1567 42.0343 20.1567 44.1571C20.1567 44.6641 20.2553 45.148 20.434 45.5913C21.9974 44.9506 22.3839 45.3036 23.9996 45.3036C25.6154 45.3036 25.7881 44.84 27.5653 45.5913C27.744 45.148 27.8426 44.6642 27.8426 44.1571Z" fill="#FFDFCF"/>
<path d="M27.5655 45.5913C26.9976 44.1783 25.6156 43.1816 23.9998 43.1816C22.384 43.1816 21.0019 44.1783 20.4341 45.5913C21.0019 47.0034 22.384 48 23.9998 48C25.6156 48 26.9976 47.0034 27.5655 45.5913Z" fill="#7A6D79"/>
<path d="M9.26601 11.634L5.92373 17.4231C5.05448 18.9286 5.57029 20.8538 7.07592 21.7231L12.6728 24.9545L19.1629 13.7133L13.566 10.4819C12.0604 9.61256 10.1353 10.1284 9.26601 11.634Z" fill="#8AC9FE"/>
<path d="M7.62298 14.4791C6.75373 15.9847 7.26955 17.9095 8.77508 18.7787L14.3723 22.0103L12.6725 24.9544L7.0753 21.7228C5.56976 20.8536 5.05405 18.9288 5.9232 17.4233L7.62298 14.4791Z" fill="#60B7FF"/>
<path d="M8.4649 10.5934C10.3033 11.6548 10.9337 14.005 9.87237 15.8434C8.81093 17.6818 6.46043 18.3109 4.62199 17.2495C4.18287 16.996 3.81312 16.6688 3.51855 16.2924C4.85515 15.2587 4.74256 14.7475 5.55049 13.3481C6.35834 11.9488 6.84621 12.0311 7.08434 10.1164C7.55749 10.1832 8.02577 10.3399 8.4649 10.5934Z" fill="#AE6C6C"/>
<path d="M7.08409 10.1164C8.02384 11.3147 8.19596 13.0099 7.38802 14.4092C6.58018 15.8085 5.0259 16.507 3.5183 16.2923C2.57949 15.0945 2.40737 13.3993 3.21521 12C4.02315 10.6007 5.57734 9.90215 7.08409 10.1164Z" fill="#7A6D79"/>
<path d="M42.0761 30.5769L38.7338 36.366C37.8646 37.8715 35.9394 38.3874 34.4338 37.5182L28.8369 34.2868L35.327 23.0456L40.9239 26.277C42.4294 27.1462 42.9454 29.0714 42.0761 30.5769Z" fill="#9BE69D"/>
<path d="M40.4335 33.4222C39.5643 34.9278 37.6395 35.4435 36.1339 34.5743L30.5367 31.3428L28.8369 34.2869L34.4342 37.5185C35.9397 38.3877 37.8646 37.8719 38.7337 36.3664L40.4335 33.4222Z" fill="#6FD7A3"/>
<path d="M43.3777 30.7504C41.5392 29.689 39.1887 30.3181 38.1273 32.1566C37.0659 33.995 37.6963 36.3451 39.5348 37.4066C39.9739 37.6601 40.4422 37.8167 40.9154 37.8837C41.1423 36.2093 41.6413 36.0511 42.4493 34.6519C43.2571 33.2526 42.942 32.8712 44.4812 31.7077C44.1865 31.3312 43.8168 31.004 43.3777 30.7504Z" fill="#FFDFCF"/>
<path d="M44.4813 31.7076C42.9738 31.493 41.4196 32.1915 40.6116 33.5908C39.8038 34.9901 39.9759 36.6853 40.9156 37.8836C42.4223 38.0978 43.9765 37.3993 44.7844 36C45.5924 34.6007 45.4203 32.9054 44.4813 31.7076Z" fill="#7A6D79"/>
<path d="M5.9237 30.5769L9.26599 36.366C10.1352 37.8715 12.0604 38.3874 13.566 37.5182L19.1629 34.2868L12.6729 23.0456L7.07599 26.277C5.57036 27.1462 5.05445 29.0714 5.9237 30.5769Z" fill="#7A6D79"/>
<path d="M7.56592 33.4222C8.43517 34.9278 10.3599 35.4435 11.8655 34.5743L17.4627 31.3428L19.1625 34.2869L13.5653 37.5185C12.0597 38.3877 10.1349 37.8719 9.2657 36.3664L7.56592 33.4222Z" fill="#685E68"/>
<path d="M4.6216 30.7504C6.46004 29.689 8.81054 30.3181 9.87197 32.1566C10.9334 33.995 10.3029 36.3451 8.4645 37.4066C8.02538 37.6601 7.5571 37.8167 7.08385 37.8837C6.85697 36.2093 6.35794 36.0511 5.55 34.6519C4.74216 33.2526 5.05725 32.8712 3.51807 31.7077C3.81272 31.3312 4.18247 31.004 4.6216 30.7504Z" fill="#FFDFCF"/>
<path d="M3.51837 31.7076C5.02597 31.493 6.58016 32.1915 7.38809 33.5908C8.19594 34.9901 8.02381 36.6853 7.08416 37.8836C5.57741 38.0978 4.02322 37.3993 3.21528 36C2.40734 34.6007 2.57947 32.9054 3.51837 31.7076Z" fill="#7A6D79"/>
<path d="M38.7338 11.634L42.0761 17.4231C42.9454 18.9286 42.4295 20.8538 40.9239 21.7231L35.327 24.9545L28.8369 13.7133L34.4338 10.4819C35.9394 9.61256 37.8646 10.1284 38.7338 11.634Z" fill="#FFE177"/>
<path d="M40.3768 14.4791C41.246 15.9847 40.7302 17.9095 39.2247 18.7787L33.6274 22.0103L35.3272 24.9544L40.9245 21.7228C42.43 20.8536 42.9457 18.9288 42.0766 17.4233L40.3768 14.4791Z" fill="#FECE85"/>
<path d="M39.5352 10.5934C37.6968 11.6548 37.0664 14.005 38.1277 15.8434C39.1892 17.6818 41.5397 18.3109 43.3781 17.2495C43.8172 16.996 44.187 16.6688 44.4815 16.2924C43.145 15.2587 43.2575 14.7475 42.4496 13.3481C41.6418 11.9488 41.1539 12.0311 40.9158 10.1164C40.4426 10.1832 39.9743 10.3399 39.5352 10.5934Z" fill="#AE6C6C"/>
<path d="M40.9156 10.1164C39.9759 11.3147 39.8038 13.0099 40.6117 14.4092C41.4195 15.8085 42.9738 16.507 44.4814 16.2923C45.4203 15.0945 45.5924 13.3993 44.7845 12C43.9766 10.6007 42.4224 9.90215 40.9156 10.1164Z" fill="#7A6D79"/>
<path d="M23.9998 37.0594C31.2123 37.0594 37.0592 31.2125 37.0592 24C37.0592 16.7875 31.2123 10.9406 23.9998 10.9406C16.7873 10.9406 10.9404 16.7875 10.9404 24C10.9404 31.2125 16.7873 37.0594 23.9998 37.0594Z" fill="#DC8758"/>
<path d="M26.0467 20.8573L23.8878 25.9782C23.7543 26.2948 23.3894 26.4433 23.0727 26.3098L15.8518 23.2656C15.5352 23.1321 15.3867 22.7672 15.5202 22.4505L17.6791 17.3296C17.8126 17.013 18.1775 16.8645 18.4942 16.998L25.7151 20.0423C26.0317 20.1758 26.1802 20.5407 26.0467 20.8573Z" fill="#D8ECFE"/>
<path d="M32.6275 26.7248L27.5307 28.9402C27.2155 29.0771 26.8491 28.9327 26.7121 28.6176L23.5883 21.4307C23.4514 21.1155 23.5958 20.749 23.9109 20.6121L29.0077 18.3967C29.3229 18.2598 29.6894 18.4043 29.8264 18.7193L32.9501 25.9062C33.0871 26.2214 32.9426 26.5879 32.6275 26.7248Z" fill="#F9F7F8"/>
<path d="M31.7354 30.5632L26.6386 32.7785C26.3234 32.9154 25.957 32.771 25.82 32.4559L22.6962 25.269C22.5593 24.9538 22.7038 24.5873 23.0188 24.4504L28.1157 22.2351C28.4308 22.0981 28.7973 22.2426 28.9343 22.5577L32.058 29.7445C32.195 30.0597 32.0506 30.4262 31.7354 30.5632Z" fill="#F5F8F9"/>
<path d="M25.1317 37.0103C24.759 37.0431 24.3814 37.0595 23.9998 37.0595C16.7873 37.0595 10.9404 31.2126 10.9404 24C10.9404 16.7875 16.7873 10.9406 23.9999 10.9406C24.3814 10.9406 24.759 10.957 25.1318 10.9898C18.4494 11.5625 13.2042 17.1689 13.2042 24C13.2042 30.8311 18.4494 36.4376 25.1317 37.0103Z" fill="#C57A44"/>
<path d="M26.0737 34.7808L27.2172 35.9243V39.7952H30.4903V35.1768C30.4903 34.7866 30.3348 34.4119 30.0586 34.1357L28.3887 32.4658L26.7431 33.1645L26.0737 34.7808Z" fill="#8AC9FE"/>
<path d="M25.6351 34.3423L26.0736 34.7808L28.3885 32.4658L27.9501 32.0273C27.6304 31.7077 27.2112 31.5483 26.793 31.5483C26.3738 31.5483 25.9547 31.7077 25.635 32.0273C24.9967 32.6666 24.9967 33.7029 25.6351 34.3423Z" fill="#FFDFCF"/>
<path d="M36.0704 13.3163L32.7181 15.2518L32.3392 16.6647L31.0488 17.2211C30.8147 18.094 29.5058 17.8044 29.7398 16.9312L29.1772 15.8168L29.7486 13.6848C29.8496 13.3076 30.0964 12.9862 30.4344 12.7909L34.4338 10.4818" fill="#FFE177"/>
<path d="M30.5595 18.6254C30.4194 18.6254 30.2765 18.607 30.1345 18.5693C29.2623 18.3347 28.7437 17.4374 28.9774 16.5653L29.1773 15.8168L32.3393 16.6648L32.1394 17.4124C31.9434 18.1434 31.2828 18.6254 30.5595 18.6254Z" fill="#9B5E5E"/>
<path d="M8.71218 29.1116L12.0645 27.1761L13.4767 27.5542C13.4767 27.5542 15.0347 27.212 15.2688 26.3391C15.503 25.4658 14.3247 24.3923 14.3247 24.3923L12.1922 23.8209C11.815 23.7198 11.4132 23.7727 11.0751 23.968L7.07568 26.277L8.71218 29.1116Z" fill="#7A6D79"/>
<path d="M16.2851 26.1727C16.2851 26.3127 16.2668 26.4556 16.2291 26.5976C15.9944 27.4698 15.0971 27.9884 14.2251 27.7547L13.4766 27.5548L14.3245 24.3928L15.0721 24.5927C15.8032 24.7886 16.2851 25.4493 16.2851 26.1727Z" fill="#FFDFCF"/>
<path d="M21.9258 34.7816L20.7824 35.9251V39.796H17.5093V35.1776C17.5093 34.7875 17.6648 34.4127 17.941 34.1365L19.6109 32.4667L21.2565 33.1654L21.9258 34.7816Z" fill="#60B7FF"/>
<path d="M22.3643 34.3432L21.9258 34.7816L19.6108 32.4667L20.0493 32.0282C20.369 31.7085 20.7882 31.5491 21.2064 31.5491C21.6255 31.5491 22.0447 31.7085 22.3644 32.0282C23.0027 32.6675 23.0027 33.7038 22.3643 34.3432Z" fill="#FFDFCF"/>
</svg>
