<svg width="225" height="66" viewBox="0 0 225 66" fill="none" xmlns="http://www.w3.org/2000/svg">
<g filter="url(#filter0_d_799_537)">
<path d="M53.2963 8.64966V15.7971H19.346V42.7985H46.3474V32.4744H53.2963V49.3503H12V8.64966H53.2963Z" fill="url(#paint0_linear_799_537)"/>
<g filter="url(#filter1_d_799_537)">
<path d="M35.8247 32.8714V26.1211H62.8261V32.8714H35.8247Z" fill="url(#paint1_linear_799_537)"/>
</g>
<path d="M81.0909 27.9496H81.1909V27.8496V19.6896V19.5896H81.0909H75.8545H75.7545V19.6896V22.4096V22.5096H75.8545H78.3727V25.0296H70.7182V17.0696H81.0909H81.1909V16.9696V14.2496V14.1496H81.0909H68H67.9V14.2496V27.8496V27.9496H68H81.0909ZM102.866 22.5096H107.273H107.373V22.4096V14.2496V14.1496H107.273H94.1818H94.0818V14.2496V27.8496V27.9496H94.1818H96.8H96.9V27.8496V22.5096H99.3719L103.965 27.9144L103.995 27.9496H104.041H107.273H107.489L107.349 27.7849L102.866 22.5096ZM133.555 25.1296V25.0296H133.455H123.082V22.5096H130.836H130.936V22.4096V19.6896V19.5896H130.836H123.082V17.0696H133.455H133.555V16.9696V14.2496V14.1496H133.455H120.364H120.264V14.2496V27.8496V27.9496H120.364H133.455H133.555V27.8496V25.1296ZM159.736 25.1296V25.0296H159.636H149.264V22.5096H157.018H157.118V22.4096V19.6896V19.5896H157.018H149.264V17.0696H159.636H159.736V16.9696V14.2496V14.1496H159.636H146.545H146.445V14.2496V27.8496V27.9496H146.545H159.636H159.736V27.8496V25.1296ZM172.627 27.8496V27.9496H172.727H175.345H175.445V27.8496V18.7741L183.123 27.914L183.153 27.9496H183.2H185.818H185.918V27.8496V14.2496V14.1496H185.818H183.2H183.1V14.2496V23.6159L175.423 14.1865L175.393 14.1496H175.345H172.727H172.627V14.2496V27.8496ZM212 17.0696H212.1V16.9696V14.2496V14.1496H212H198.909H198.809V14.2496V22.4096V22.5096H198.909H209.282V25.0296H198.909H198.809V25.1296V27.8496V27.9496H198.909H212H212.1V27.8496V19.6896V19.5896H212H201.627V17.0696H212ZM104.555 19.5896H96.9V17.0696H104.555V19.5896Z" fill="#033631" stroke="white" stroke-width="0.2"/>
<path d="M72.7032 36.7566V44.5427H71.3431V36.7566H72.7032ZM76.0534 36.7566V37.6015H68V36.7566H76.0534Z" fill="#BF9B42"/>
<path d="M87.7399 43.7031V44.5427H82.2207V43.7031H87.7399ZM82.4998 36.7566V44.5427H81.1182V36.7566H82.4998ZM87.0098 40.1042V40.9438H82.2207V40.1042H87.0098ZM87.6683 36.7566V37.6015H82.2207V36.7566H87.6683Z" fill="#BF9B42"/>
<path d="M99.2618 42.0668H100.636C100.565 42.5587 100.376 42.999 100.071 43.3876C99.7653 43.7762 99.3334 44.0846 98.775 44.3128C98.2167 44.5374 97.5199 44.6497 96.6847 44.6497C96.0739 44.6497 95.5179 44.5641 95.0168 44.393C94.5204 44.2219 94.0933 43.9794 93.7354 43.6657C93.3775 43.3484 93.1007 42.9687 92.905 42.5267C92.7141 42.081 92.6186 41.5855 92.6186 41.04V40.2646C92.6186 39.7192 92.7141 39.2254 92.905 38.7833C93.1007 38.3377 93.3798 37.9563 93.7425 37.639C94.11 37.3217 94.5515 37.0775 95.0669 36.9063C95.5823 36.7352 96.1621 36.6497 96.8064 36.6497C97.5939 36.6497 98.2596 36.7602 98.8037 36.9812C99.3477 37.2022 99.7701 37.5088 100.071 37.901C100.376 38.2896 100.565 38.7406 100.636 39.2539H99.2618C99.195 38.8903 99.0709 38.5784 98.8896 38.3181C98.7082 38.0543 98.4505 37.8511 98.1164 37.7085C97.7824 37.5659 97.3457 37.4946 96.8064 37.4946C96.3435 37.4946 95.9355 37.5605 95.5823 37.6924C95.2339 37.8243 94.9404 38.0115 94.7018 38.2539C94.4679 38.4964 94.2914 38.7869 94.1721 39.1256C94.0527 39.4643 93.9931 39.8404 93.9931 40.2539V41.04C93.9931 41.4215 94.0456 41.7798 94.1506 42.1149C94.2603 42.45 94.425 42.7441 94.6445 42.9973C94.864 43.2504 95.1432 43.45 95.4821 43.5962C95.8209 43.7388 96.2218 43.8101 96.6847 43.8101C97.2717 43.8101 97.7394 43.7406 98.0878 43.6015C98.4362 43.4625 98.6987 43.2628 98.8752 43.0026C99.0566 42.7424 99.1854 42.4304 99.2618 42.0668Z" fill="#BF9B42"/>
<path d="M112.845 40.1042V40.9438H107.204V40.1042H112.845ZM107.419 36.7566V44.5427H106.038V36.7566H107.419ZM114.048 36.7566V44.5427H112.674V36.7566H114.048Z" fill="#BF9B42"/>
<path d="M128.04 36.7566V44.5427H126.651L121.404 38.5374V44.5427H120.022V36.7566H121.404L126.672 42.778V36.7566H128.04Z" fill="#BF9B42"/>
<path d="M142.031 40.4037V40.8956C142.031 41.4803 141.933 42.0044 141.738 42.4678C141.542 42.9313 141.26 43.3252 140.893 43.6497C140.525 43.9741 140.084 44.2219 139.569 44.393C139.058 44.5641 138.485 44.6497 137.851 44.6497C137.235 44.6497 136.669 44.5641 136.154 44.393C135.643 44.2219 135.2 43.9741 134.822 43.6497C134.45 43.3252 134.162 42.9313 133.956 42.4678C133.751 42.0044 133.648 41.4803 133.648 40.8956V40.4037C133.648 39.819 133.749 39.2967 133.949 38.8368C134.154 38.3734 134.443 37.9794 134.815 37.655C135.188 37.327 135.629 37.0775 136.14 36.9063C136.655 36.7352 137.221 36.6497 137.836 36.6497C138.471 36.6497 139.044 36.7352 139.554 36.9063C140.07 37.0775 140.511 37.327 140.879 37.655C141.251 37.9794 141.535 38.3734 141.731 38.8368C141.931 39.2967 142.031 39.819 142.031 40.4037ZM140.664 40.8956V40.393C140.664 39.9295 140.599 39.5195 140.471 39.163C140.347 38.8065 140.163 38.5071 139.919 38.2646C139.676 38.0222 139.378 37.8386 139.025 37.7138C138.676 37.5891 138.28 37.5267 137.836 37.5267C137.407 37.5267 137.018 37.5891 136.669 37.7138C136.326 37.8386 136.03 38.0222 135.782 38.2646C135.538 38.5071 135.35 38.8065 135.216 39.163C135.083 39.5195 135.016 39.9295 135.016 40.393V40.8956C135.016 41.3627 135.083 41.7762 135.216 42.1363C135.35 42.4928 135.541 42.794 135.789 43.04C136.042 43.2825 136.34 43.4661 136.684 43.5908C137.032 43.7156 137.421 43.778 137.851 43.778C138.299 43.778 138.698 43.7156 139.046 43.5908C139.394 43.4661 139.688 43.2825 139.927 43.04C140.17 42.794 140.354 42.4928 140.478 42.1363C140.602 41.7762 140.664 41.3627 140.664 40.8956Z" fill="#BF9B42"/>
<path d="M153.94 43.7031V44.5427H148.728V43.7031H153.94ZM149 36.7566V44.5427H147.619V36.7566H149Z" fill="#BF9B42"/>
<path d="M166.593 40.4037V40.8956C166.593 41.4803 166.495 42.0044 166.299 42.4678C166.103 42.9313 165.822 43.3252 165.454 43.6497C165.087 43.9741 164.645 44.2219 164.13 44.393C163.619 44.5641 163.047 44.6497 162.412 44.6497C161.796 44.6497 161.231 44.5641 160.715 44.393C160.205 44.2219 159.761 43.9741 159.384 43.6497C159.012 43.3252 158.723 42.9313 158.518 42.4678C158.312 42.0044 158.21 41.4803 158.21 40.8956V40.4037C158.21 39.819 158.31 39.2967 158.511 38.8368C158.716 38.3734 159.004 37.9794 159.377 37.655C159.749 37.327 160.19 37.0775 160.701 36.9063C161.216 36.7352 161.782 36.6497 162.398 36.6497C163.032 36.6497 163.605 36.7352 164.116 36.9063C164.631 37.0775 165.073 37.327 165.44 37.655C165.812 37.9794 166.096 38.3734 166.292 38.8368C166.492 39.2967 166.593 39.819 166.593 40.4037ZM165.225 40.8956V40.393C165.225 39.9295 165.161 39.5195 165.032 39.163C164.908 38.8065 164.724 38.5071 164.481 38.2646C164.237 38.0222 163.939 37.8386 163.586 37.7138C163.238 37.5891 162.841 37.5267 162.398 37.5267C161.968 37.5267 161.579 37.5891 161.231 37.7138C160.887 37.8386 160.591 38.0222 160.343 38.2646C160.1 38.5071 159.911 38.8065 159.778 39.163C159.644 39.5195 159.577 39.9295 159.577 40.393V40.8956C159.577 41.3627 159.644 41.7762 159.778 42.1363C159.911 42.4928 160.102 42.794 160.35 43.04C160.603 43.2825 160.901 43.4661 161.245 43.5908C161.593 43.7156 161.982 43.778 162.412 43.778C162.861 43.778 163.259 43.7156 163.607 43.5908C163.956 43.4661 164.249 43.2825 164.488 43.04C164.731 42.794 164.915 42.4928 165.039 42.1363C165.163 41.7762 165.225 41.3627 165.225 40.8956Z" fill="#BF9B42"/>
<path d="M179.883 40.6657V43.516C179.754 43.6586 179.549 43.819 179.267 43.9973C178.985 44.1719 178.596 44.3252 178.1 44.4571C177.609 44.5855 176.974 44.6497 176.196 44.6497C175.561 44.6497 174.977 44.5677 174.442 44.4037C173.912 44.2361 173.452 43.9937 173.06 43.6764C172.674 43.3555 172.373 42.9669 172.158 42.5106C171.948 42.0507 171.844 41.5302 171.844 40.9491V40.3448C171.844 39.7637 171.934 39.245 172.116 38.7887C172.302 38.3324 172.574 37.9456 172.932 37.6283C173.29 37.3074 173.729 37.065 174.249 36.901C174.769 36.7334 175.366 36.6497 176.038 36.6497C176.835 36.6497 177.501 36.753 178.036 36.9598C178.575 37.163 178.995 37.4447 179.296 37.8047C179.601 38.1648 179.797 38.5748 179.883 39.0347H178.501C178.439 38.753 178.315 38.4964 178.129 38.2646C177.947 38.0329 177.687 37.8475 177.348 37.7085C177.01 37.5659 176.573 37.4946 176.038 37.4946C175.556 37.4946 175.139 37.5605 174.786 37.6924C174.433 37.8243 174.141 38.0133 173.912 38.2593C173.683 38.5053 173.511 38.803 173.397 39.1523C173.287 39.5017 173.232 39.8956 173.232 40.3342V40.9491C173.232 41.3983 173.301 41.7994 173.44 42.1523C173.583 42.5053 173.786 42.8065 174.048 43.0561C174.311 43.3021 174.623 43.4892 174.986 43.6176C175.354 43.7459 175.759 43.8101 176.203 43.8101C176.695 43.8101 177.093 43.7798 177.399 43.7192C177.704 43.655 177.943 43.5801 178.114 43.4946C178.286 43.4055 178.417 43.3217 178.508 43.2432V41.4999H176.096V40.6657H179.883Z" fill="#BF9B42"/>
<path d="M187.174 36.7566V44.5427H185.792V36.7566H187.174Z" fill="#BF9B42"/>
<path d="M199.827 43.7031V44.5427H194.307V43.7031H199.827ZM194.587 36.7566V44.5427H193.205V36.7566H194.587ZM199.097 40.1042V40.9438H194.307V40.1042H199.097ZM199.755 36.7566V37.6015H194.307V36.7566H199.755Z" fill="#BF9B42"/>
<path d="M210.611 42.5748C210.611 42.393 210.573 42.2325 210.497 42.0935C210.425 41.9509 210.296 41.8226 210.11 41.7085C209.929 41.5944 209.676 41.4857 209.351 41.3823C209.032 41.2789 208.626 41.1737 208.134 41.0668C207.619 40.9527 207.154 40.8261 206.738 40.6871C206.323 40.5445 205.968 40.3823 205.672 40.2005C205.376 40.0186 205.149 39.8101 204.992 39.5748C204.834 39.3395 204.756 39.0703 204.756 38.7673C204.756 38.4643 204.839 38.1844 205.006 37.9277C205.173 37.671 205.412 37.4482 205.722 37.2593C206.037 37.0668 206.412 36.917 206.846 36.8101C207.28 36.7031 207.764 36.6497 208.299 36.6497C209.082 36.6497 209.745 36.762 210.289 36.9866C210.838 37.2076 211.256 37.4981 211.542 37.8582C211.828 38.2147 211.971 38.5962 211.971 39.0026H210.597C210.597 38.7103 210.513 38.4518 210.346 38.2272C210.179 37.999 209.926 37.8208 209.588 37.6924C209.249 37.5605 208.819 37.4946 208.299 37.4946C207.807 37.4946 207.402 37.5498 207.082 37.6604C206.762 37.7709 206.524 37.9206 206.366 38.1096C206.213 38.2985 206.137 38.5142 206.137 38.7566C206.137 38.9206 206.182 39.0703 206.273 39.2058C206.369 39.3377 206.514 39.4607 206.71 39.5748C206.91 39.6889 207.163 39.794 207.469 39.8903C207.779 39.9866 208.149 40.0792 208.578 40.1684C209.17 40.2932 209.681 40.4322 210.11 40.5855C210.54 40.7388 210.893 40.9117 211.17 41.1042C211.451 41.2932 211.659 41.5088 211.792 41.7513C211.931 41.9901 212 42.2611 212 42.5641C212 42.8814 211.914 43.1684 211.742 43.4251C211.57 43.6817 211.325 43.901 211.005 44.0828C210.685 44.2646 210.301 44.4055 209.852 44.5053C209.409 44.6015 208.912 44.6497 208.363 44.6497C207.881 44.6497 207.407 44.5997 206.939 44.4999C206.476 44.4001 206.054 44.2504 205.672 44.0507C205.295 43.8511 204.992 43.6051 204.763 43.3128C204.538 43.0169 204.426 42.6746 204.426 42.286H205.801C205.801 42.5534 205.87 42.7833 206.008 42.9759C206.147 43.1648 206.335 43.3217 206.574 43.4464C206.817 43.5712 207.092 43.6639 207.397 43.7245C207.707 43.7816 208.029 43.8101 208.363 43.8101C208.845 43.8101 209.253 43.7602 209.588 43.6604C209.922 43.5605 210.175 43.4179 210.346 43.2325C210.523 43.0472 210.611 42.8279 210.611 42.5748Z" fill="#BF9B42"/>
</g>
<defs>
<filter id="filter0_d_799_537" x="0" y="0.649658" width="224.2" height="64.7007" filterUnits="userSpaceOnUse" color-interpolation-filters="sRGB">
<feFlood flood-opacity="0" result="BackgroundImageFix"/>
<feColorMatrix in="SourceAlpha" type="matrix" values="0 0 0 0 0 0 0 0 0 0 0 0 0 0 0 0 0 0 127 0" result="hardAlpha"/>
<feOffset dy="4"/>
<feGaussianBlur stdDeviation="6"/>
<feComposite in2="hardAlpha" operator="out"/>
<feColorMatrix type="matrix" values="0 0 0 0 1 0 0 0 0 1 0 0 0 0 1 0 0 0 0.5 0"/>
<feBlend mode="normal" in2="BackgroundImageFix" result="effect1_dropShadow_799_537"/>
<feBlend mode="normal" in="SourceGraphic" in2="effect1_dropShadow_799_537" result="shape"/>
</filter>
<filter id="filter1_d_799_537" x="31.8247" y="24.1211" width="35.0015" height="14.7504" filterUnits="userSpaceOnUse" color-interpolation-filters="sRGB">
<feFlood flood-opacity="0" result="BackgroundImageFix"/>
<feColorMatrix in="SourceAlpha" type="matrix" values="0 0 0 0 0 0 0 0 0 0 0 0 0 0 0 0 0 0 127 0" result="hardAlpha"/>
<feOffset dy="2"/>
<feGaussianBlur stdDeviation="2"/>
<feComposite in2="hardAlpha" operator="out"/>
<feColorMatrix type="matrix" values="0 0 0 0 0.2 0 0 0 0 0.2 0 0 0 0 0.2 0 0 0 1 0"/>
<feBlend mode="normal" in2="BackgroundImageFix" result="effect1_dropShadow_799_537"/>
<feBlend mode="normal" in="SourceGraphic" in2="effect1_dropShadow_799_537" result="shape"/>
</filter>
<linearGradient id="paint0_linear_799_537" x1="12" y1="8.64966" x2="53.2963" y2="49.5488" gradientUnits="userSpaceOnUse">
<stop stop-color="#8C421D"/>
<stop offset="0.295" stop-color="#FBE67B"/>
<stop offset="0.555" stop-color="#FFF97E"/>
<stop offset="0.835" stop-color="#D4A041"/>
<stop offset="0.995" stop-color="#D4A041"/>
</linearGradient>
<linearGradient id="paint1_linear_799_537" x1="35.8247" y1="26.1211" x2="62.8261" y2="32.8714" gradientUnits="userSpaceOnUse">
<stop stop-color="#8C421D"/>
<stop offset="0.265" stop-color="#FBE67B"/>
<stop offset="0.46" stop-color="#FFF97E"/>
<stop offset="0.695" stop-color="#F7D14E"/>
<stop offset="1" stop-color="#D4A041"/>
</linearGradient>
</defs>
</svg>
