<svg width="48" height="48" viewBox="0 0 48 48" fill="none" xmlns="http://www.w3.org/2000/svg">
<path d="M31.7485 6.74561H21.4348C20.9173 6.74561 20.421 6.9512 20.0551 7.31711L14.3142 13.058C13.5522 13.82 13.5522 15.0554 14.3142 15.8174C15.0762 16.5794 16.3116 16.5794 17.0736 15.8174L21.843 11.0481C22.0991 10.7919 22.4465 10.648 22.8088 10.648H31.7485V6.74561Z" fill="#FFBD86"/>
<path d="M27.3173 26.2781C29.0415 26.2781 30.4393 24.8804 30.4393 23.1561C30.4393 21.4319 29.0415 20.0342 27.3173 20.0342C25.5931 20.0342 24.1953 21.4319 24.1953 23.1561C24.1953 24.8804 25.5931 26.2781 27.3173 26.2781Z" fill="#FED2A4"/>
<path d="M27.3172 26.2789C24.731 26.279 22.6343 28.3748 22.6343 30.961V32.5219C22.6343 33.2762 23.2458 33.8878 24.0001 33.8878H30.6342C31.3886 33.8878 32.0001 33.2762 32.0001 32.5219V30.961C32.0001 28.3748 29.9034 26.279 27.3172 26.2789Z" fill="#FD8087"/>
<path d="M27.3172 26.2789C26.913 26.2789 26.5207 26.3302 26.1465 26.4265C28.1662 26.9462 29.6586 28.7791 29.6586 30.9611V32.522C29.6586 33.2763 29.0471 33.8879 28.2928 33.8879H30.6343C31.3886 33.8879 32.0001 33.2763 32.0001 32.522V30.9611C32.0001 28.3748 29.9034 26.279 27.3172 26.2789Z" fill="#FE646F"/>
<path d="M4.683 36.4241C6.40722 36.4241 7.80497 35.0264 7.80497 33.3021C7.80497 31.5779 6.40722 30.1802 4.683 30.1802C2.95879 30.1802 1.56104 31.5779 1.56104 33.3021C1.56104 35.0264 2.95879 36.4241 4.683 36.4241Z" fill="#FED2A4"/>
<path d="M4.68291 36.4249C2.09672 36.425 0 38.5207 0 41.107V42.668C0 43.4223 0.611531 44.0338 1.36584 44.0338H7.99997C8.75428 44.0338 9.36581 43.4223 9.36581 42.668V41.107C9.36581 38.5207 7.26909 36.425 4.68291 36.4249Z" fill="#00F2A6"/>
<path d="M4.68296 36.4249C4.27871 36.4249 3.88646 36.4761 3.51221 36.5724C5.53196 37.0922 7.02436 38.925 7.02436 41.107V42.668C7.02436 43.4223 6.41283 44.0338 5.65852 44.0338H8.00002C8.75433 44.0338 9.36586 43.4223 9.36586 42.668L10.0941 41.7706L9.36586 41.1069C9.36586 38.5207 7.26914 36.425 4.68296 36.4249Z" fill="#0ED290"/>
<path d="M14.0487 36.4241C15.7729 36.4241 17.1707 35.0264 17.1707 33.3021C17.1707 31.5779 15.7729 30.1802 14.0487 30.1802C12.3245 30.1802 10.9268 31.5779 10.9268 33.3021C10.9268 35.0264 12.3245 36.4241 14.0487 36.4241Z" fill="#FED2A4"/>
<path d="M14.0486 36.4249C11.4624 36.425 9.36572 38.5207 9.36572 41.1069V42.6679C9.36572 43.4222 9.97725 44.0337 10.7316 44.0337H17.3657C18.12 44.0337 18.7315 43.4222 18.7315 42.6679V41.1069C18.7315 38.5207 16.6348 36.425 14.0486 36.4249Z" fill="#60B7FF"/>
<path d="M14.0487 36.4249C13.6444 36.4249 13.2522 36.4761 12.8779 36.5724C14.8977 37.0922 16.3901 38.925 16.3901 41.107V42.668C16.3901 43.4223 15.7786 44.0338 15.0242 44.0338H17.3657C18.1201 44.0338 18.7316 43.4223 18.7316 42.668V41.107C18.7316 38.5207 16.6349 36.425 14.0487 36.4249Z" fill="#26A6FE"/>
<path d="M39.4592 6.74561H26.9547C26.4372 6.74561 25.9409 6.9512 25.575 7.31711L15.99 16.9021C15.228 17.6641 15.228 18.8995 15.99 19.6615L20.8643 24.5359C21.6263 25.2979 22.8617 25.2979 23.6237 24.5359C24.3857 23.7739 24.3857 22.5384 23.6237 21.7764L20.7263 18.879C20.5624 18.7151 20.5766 18.4455 20.7568 18.2997L25.0795 14.8009C25.4857 14.4721 26.0607 14.4523 26.4885 14.7525L29.9409 17.1747C30.2533 17.3939 30.4393 17.7516 30.4393 18.1331V23.1094C30.4393 24.1674 31.262 25.0685 32.3193 25.1062C33.4294 25.1456 34.3417 24.2574 34.3417 23.1563V19.3702C34.3417 18.6576 34.7643 18.0128 35.4179 17.7286C36.3126 17.3394 37.0706 16.6918 37.5945 15.8687L38.0735 15.1164C38.181 14.9476 38.3672 14.8453 38.5673 14.8453H39.4593V6.74561H39.4592Z" fill="#FED2A4"/>
<path d="M35.4204 17.7271C36.3138 17.3379 37.0708 16.6907 37.5941 15.8686L38.0731 15.1163C38.1805 14.9475 38.3668 14.8452 38.5668 14.8452H39.4589L40.4433 10.079L39.4589 6.74551H37.1174V14.7079C37.1174 14.708 37.1174 16.7773 35.4204 17.7271Z" fill="#FFBD86"/>
<path d="M39.459 5.9174V15.6735C39.459 16.2123 39.8958 16.6491 40.4345 16.6491H42.5809L43.5581 10.5673L42.5809 4.94174H40.4345C39.8958 4.94174 39.459 5.37862 39.459 5.9174Z" fill="#EAF6FF"/>
<path d="M42.5811 4.74666V16.8442C42.5811 17.2753 42.9305 17.6247 43.3615 17.6247H47.2195C47.6506 17.6247 48 17.2753 48 16.8442V4.74666C48 4.31559 47.6506 3.96619 47.2195 3.96619H43.3615C42.9305 3.96619 42.5811 4.31559 42.5811 4.74666Z" fill="#60B7FF"/>
<path d="M47.2194 3.96619H44.8779C45.309 3.96619 45.6584 4.31559 45.6584 4.74666V16.8442C45.6584 17.2753 45.309 17.6247 44.8779 17.6247H47.2194C47.6505 17.6247 47.9999 17.2753 47.9999 16.8442V4.74666C47.9999 4.31559 47.6505 3.96619 47.2194 3.96619Z" fill="#26A6FE"/>
</svg>
