<svg width="48" height="48" viewBox="0 0 48 48" fill="none" xmlns="http://www.w3.org/2000/svg">
<g clip-path="url(#clip0_807_960)">
<path fill-rule="evenodd" clip-rule="evenodd" d="M17.8384 36.5795H30.1588V43.5962H17.8384V36.5795Z" fill="#A79BA7"/>
<path fill-rule="evenodd" clip-rule="evenodd" d="M29.2031 36.5795H30.1593V43.5962H29.2031V36.5795Z" fill="#837683"/>
<path fill-rule="evenodd" clip-rule="evenodd" d="M10.6826 46.5872H37.3168V44.5338C37.3168 43.4064 36.1592 42.4804 34.7471 42.4804H13.2523C11.8378 42.4804 10.6826 43.4064 10.6826 44.5338V46.5872Z" fill="#ECEFF1"/>
<path fill-rule="evenodd" clip-rule="evenodd" d="M10.6826 46.5872H37.3168V44.5338C37.3168 43.8648 36.907 43.2652 36.2796 42.8902C36.4209 43.1425 36.4996 43.4249 36.4996 43.719V45.7723H10.6826V46.5872Z" fill="#D1D1D6"/>
<path fill-rule="evenodd" clip-rule="evenodd" d="M7.41176 10.9338H40.5858C42.2433 10.9338 43.5999 12.2905 43.5999 13.948V34.6789C43.5999 36.3364 42.2433 37.693 40.5858 37.693H7.41176C5.75416 37.693 4.3999 36.3364 4.3999 34.6789V13.948C4.3999 12.2905 5.75416 10.9338 7.41176 10.9338Z" fill="#ECEFF1"/>
<path fill-rule="evenodd" clip-rule="evenodd" d="M42.2666 11.4501C43.0699 11.9941 43.6001 12.9109 43.6001 13.948V34.6789C43.6001 36.3364 42.2435 37.693 40.586 37.693H7.41195C6.37712 37.693 5.45806 37.1628 4.91406 36.3619C5.39557 36.6859 5.9743 36.8758 6.59472 36.8758H39.7687C41.4263 36.8758 42.7829 35.5215 42.7829 33.8639V13.1307C42.7829 12.5103 42.593 11.9316 42.2666 11.4501Z" fill="#D1D1D6"/>
<path fill-rule="evenodd" clip-rule="evenodd" d="M7.33756 13.4549H40.662C40.8913 13.4549 41.0787 13.6423 41.0787 13.8715V32.6393H6.91846V13.8715C6.91846 13.6423 7.10603 13.4549 7.33756 13.4549Z" fill="#D8ECFE"/>
<path fill-rule="evenodd" clip-rule="evenodd" d="M39.0278 13.4549H40.6622C40.8915 13.4549 41.0789 13.6423 41.0789 13.8715V32.6393H39.4468V13.8715C39.4468 13.6423 39.257 13.4549 39.0278 13.4549Z" fill="#C4E2FF"/>
<path fill-rule="evenodd" clip-rule="evenodd" d="M20.4912 32.6173L20.4942 30.1322C20.4949 29.1755 20.3699 28.2773 19.6594 27.6373C18.8684 26.9243 17.4304 25.8439 16.3223 24.5347C15.8333 24.0935 15.0943 24.0692 14.6289 24.5355C14.1774 24.9874 14.1501 25.5944 14.5889 26.1777L14.2519 25.7651C13.8206 25.2332 13.5901 24.6492 13.5929 23.964L13.6115 19.061C13.6263 15.2502 10.8288 16.3059 10.7923 17.5923L10.537 26.6175C10.5126 27.4475 10.8125 28.1684 11.3987 28.7558L15.2606 32.6173H20.4912Z" fill="#F6DCCD"/>
<path fill-rule="evenodd" clip-rule="evenodd" d="M18.8027 26.9034C18.8145 26.9139 19.6825 27.6586 19.6939 27.6692C20.3738 28.3069 20.4947 29.1914 20.494 30.1322L20.491 32.6173H19.5498L19.5529 30.1322C19.5536 29.1755 19.5133 27.5433 18.8027 26.9034Z" fill="#F1CBBC"/>
<path fill-rule="evenodd" clip-rule="evenodd" d="M14.7693 24.4152C14.9273 24.445 15.0769 24.5255 15.1918 24.6549C15.8244 25.3673 16.4815 25.9535 17.1853 26.6563C17.4794 26.9498 17.4797 27.427 17.1861 27.721C16.8925 28.0152 16.4154 28.0154 16.1213 27.7219C15.3951 26.9968 15.2413 26.9128 14.5887 26.1777C14.15 25.5944 14.1773 24.9874 14.6287 24.5355C14.6733 24.4909 14.7202 24.4508 14.7693 24.4152ZM14.5887 26.1777C14.5709 26.1576 14.5521 26.1346 14.5327 26.1091L14.5887 26.1777Z" fill="#F1CBBC"/>
<path fill-rule="evenodd" clip-rule="evenodd" d="M27.5084 32.6173L27.5054 30.1322C27.5046 29.1755 27.6297 28.2773 28.3402 27.6373C29.1312 26.9243 30.5692 25.8439 31.6772 24.5347C32.1663 24.0935 32.9053 24.0692 33.3707 24.5355C33.8222 24.9874 33.8495 25.5944 33.4107 26.1777L33.7476 25.7651C34.179 25.2332 34.4095 24.6492 34.4066 23.964L34.3881 19.061C34.3732 15.2502 37.1708 16.3059 37.2073 17.5923L37.4626 26.6175C37.4869 27.4475 37.1871 28.1684 36.6009 28.7558L32.739 32.6173H27.5084Z" fill="#F6DCCD"/>
<path fill-rule="evenodd" clip-rule="evenodd" d="M29.1967 26.9034C29.1849 26.9139 28.3169 27.6586 28.3055 27.6692C27.6256 28.3069 27.5047 29.1914 27.5054 30.1322L27.5084 32.6173H28.4496L28.4466 30.1322C28.4458 29.1755 28.4861 27.5433 29.1967 26.9034Z" fill="#F1CBBC"/>
<path fill-rule="evenodd" clip-rule="evenodd" d="M33.2301 24.4152C33.0721 24.445 32.9224 24.5255 32.8075 24.6549C32.175 25.3673 31.5178 25.9535 30.814 26.6563C30.52 26.9498 30.5196 27.427 30.8133 27.721C31.1069 28.0152 31.584 28.0154 31.8781 27.7219C32.6042 26.9968 32.758 26.9128 33.4106 26.1777C33.8494 25.5944 33.8221 24.9874 33.3706 24.5355C33.3261 24.4909 33.2791 24.4508 33.2301 24.4152ZM33.4106 26.1777C33.4284 26.1576 33.4472 26.1346 33.4666 26.1091L33.4106 26.1777Z" fill="#F1CBBC"/>
<path fill-rule="evenodd" clip-rule="evenodd" d="M28.6077 14.4907L24.0669 16.3348L27.643 24.0156C27.6723 24.0766 27.7258 24.1131 27.7916 24.1156C27.8574 24.118 27.9158 24.0863 27.9475 24.0303L29.2824 21.738L31.8939 22.1935C31.9597 22.2056 32.0206 22.1814 32.0596 22.1277C32.101 22.0766 32.1083 22.0108 32.079 21.9499L28.6077 14.4907Z" fill="#FE646F"/>
<path fill-rule="evenodd" clip-rule="evenodd" d="M27.3638 23.4163L28.428 21.5889L29.2823 21.738L27.9473 24.0303C27.9157 24.0863 27.8572 24.118 27.7914 24.1156C27.7256 24.1131 27.6721 24.0766 27.6428 24.0156L27.3638 23.4163ZM31.1506 22.0639C31.1599 22.0271 31.1558 21.9876 31.1377 21.9499L27.8159 14.8121L28.6075 14.4907L32.0789 21.9499C32.1081 22.0108 32.1008 22.0766 32.0594 22.1277C32.0204 22.1814 31.9595 22.2056 31.8937 22.1935L31.1506 22.0639Z" fill="#FD4755"/>
<path fill-rule="evenodd" clip-rule="evenodd" d="M19.3919 14.4907L23.9327 16.3348L20.3566 24.0156C20.3298 24.0766 20.2738 24.1131 20.208 24.1156C20.1422 24.118 20.0837 24.0863 20.0521 24.0303L18.7196 21.738L16.1057 22.1935C16.0399 22.2056 15.979 22.1814 15.94 22.1277C15.8986 22.0766 15.8913 22.0108 15.9205 21.9499L19.3919 14.4907Z" fill="#FE646F"/>
<path fill-rule="evenodd" clip-rule="evenodd" d="M16.3746 22.1466L16.1057 22.1935C16.0399 22.2056 15.979 22.1814 15.94 22.1277C15.8986 22.0766 15.8913 22.0108 15.9205 21.9499L19.3919 14.4907L19.7441 14.6337L16.3393 21.9499C16.31 22.0108 16.3173 22.0766 16.3588 22.1277C16.3637 22.1345 16.3689 22.1408 16.3746 22.1466ZM20.4036 23.9147L20.3566 24.0156C20.3298 24.0766 20.2738 24.1131 20.208 24.1156C20.1422 24.118 20.0837 24.0863 20.0521 24.0303L18.7196 21.738L19.0997 21.6717L20.4036 23.9147Z" fill="#FD4755"/>
<path fill-rule="evenodd" clip-rule="evenodd" d="M25.1605 1.80377L26.3273 2.67831C26.6465 2.91709 26.9802 3.03887 27.3798 3.0608L28.8341 3.14118C29.7037 3.18984 30.4126 3.78429 30.61 4.632L30.9437 6.05224C31.0338 6.43953 31.2117 6.74899 31.504 7.02175L32.5661 8.01817C33.2019 8.61497 33.3626 9.52603 32.968 10.3032L32.3103 11.604C32.1324 11.9596 32.0692 12.3104 32.1178 12.7075L32.2908 14.1545C32.3931 15.0193 31.9327 15.8208 31.1289 16.1642L29.7914 16.7368C29.4236 16.8926 29.1508 17.1241 28.9315 17.4578L28.1349 18.6759C27.6574 19.4067 26.7902 19.7209 25.9546 19.47L24.5588 19.0486C24.1787 18.9317 23.8207 18.9317 23.4407 19.0486L22.0448 19.47C21.2092 19.7209 20.342 19.4067 19.8646 18.6759L19.068 17.4578C18.8487 17.1241 18.5758 16.8926 18.208 16.7368L16.8706 16.1642C16.0692 15.8208 15.6063 15.0193 15.7086 14.1545L15.8816 12.7075C15.9303 12.3104 15.867 11.9596 15.6891 11.604L15.0314 10.3032C14.6368 9.52603 14.7976 8.61497 15.4333 8.01817L16.4954 7.02175C16.7878 6.74899 16.9657 6.43953 17.0557 6.05224L17.3895 4.632C17.5868 3.78429 18.2957 3.18984 19.1654 3.14118L20.6197 3.0608C21.0192 3.03887 21.3554 2.91709 21.6721 2.67831L22.839 1.80377C23.5381 1.28245 24.4614 1.28245 25.1605 1.80377Z" fill="#FFE177"/>
<path fill-rule="evenodd" clip-rule="evenodd" d="M23.5291 1.4721C24.0808 1.33102 24.6748 1.44161 25.1604 1.80377L26.3273 2.67831C26.6464 2.91709 26.9802 3.03888 27.3797 3.06081L28.834 3.14118C29.7037 3.18984 30.4125 3.78429 30.6099 4.63201L30.9437 6.05224C31.0337 6.43953 31.2116 6.74899 31.5039 7.02175L32.5661 8.01817C33.2018 8.61497 33.3626 9.52603 32.9679 10.3032L32.3102 11.604C32.1324 11.9596 32.0691 12.3104 32.1178 12.7075L32.2908 14.1545C32.3931 15.0193 31.9326 15.8208 31.1288 16.1642L29.7914 16.7368C29.4236 16.8926 29.1507 17.1241 28.9314 17.4578L28.1348 18.6759C27.6765 19.3775 26.8587 19.6952 26.0547 19.4973C26.5104 19.3822 26.9173 19.0988 27.1936 18.6759L27.9902 17.4578C28.2095 17.1241 28.4824 16.8926 28.8502 16.7368L30.1876 16.1642C30.9915 15.8208 31.4519 15.0193 31.3496 14.1545L31.1766 12.7075C31.1279 12.3104 31.1912 11.9596 31.3691 11.604L32.0268 10.3032C32.4214 9.52603 32.2606 8.61497 31.6249 8.01817L30.5628 7.02175C30.2704 6.74899 30.0925 6.43953 30.0025 6.05224L29.6687 4.63201C29.4714 3.78429 28.7625 3.18984 27.8928 3.14118L26.4385 3.06081C26.039 3.03888 25.7053 2.91709 25.3861 2.67831L24.2192 1.80377C24.0059 1.64462 23.7715 1.53403 23.5291 1.4721ZM23.5291 19.0233C23.4997 19.0311 23.4702 19.0394 23.4406 19.0486L22.0447 19.47C21.6927 19.5757 21.3352 19.5811 21.0034 19.4973C21.0368 19.4891 21.0702 19.48 21.1036 19.47L22.4994 19.0486C22.8498 18.9407 23.1816 18.9323 23.5291 19.0233Z" fill="#FFD064"/>
<path fill-rule="evenodd" clip-rule="evenodd" d="M24.0011 15.5748C26.8025 15.5748 29.09 13.2873 29.09 10.4834C29.09 7.67953 26.8025 5.39209 24.0011 5.39209C21.1972 5.39209 18.9097 7.67953 18.9097 10.4834C18.9097 13.2873 21.1972 15.5748 24.0011 15.5748Z" fill="#ECEFF1"/>
<path fill-rule="evenodd" clip-rule="evenodd" d="M24.4715 5.41374C21.8867 5.65261 19.8508 7.83821 19.8508 10.4834C19.8508 13.1287 21.8867 15.3142 24.4715 15.5531C24.3165 15.5674 24.1596 15.5748 24.0011 15.5748C21.1972 15.5748 18.9097 13.2873 18.9097 10.4834C18.9097 7.67953 21.1972 5.39209 24.0011 5.39209C24.1596 5.39209 24.3165 5.39943 24.4715 5.41374Z" fill="#D1D1D6"/>
</g>
<defs>
<clipPath id="clip0_807_960">
<rect width="48" height="48" fill="white"/>
</clipPath>
</defs>
</svg>
