<svg width="36" height="34" viewBox="0 0 36 34" fill="none" xmlns="http://www.w3.org/2000/svg">
<path d="M30.888 0L34.416 4.48117C33.072 5.71409 31.776 7.61088 30.528 10.1715C29.328 12.6848 28.68 15.8619 28.584 19.7029L36 20.6276V34H21.6V27.6695C21.6 27.1004 21.624 25.9149 21.672 24.113C21.72 22.2636 21.768 21.0307 21.816 20.4142C21.864 19.7503 21.936 18.636 22.032 17.0711C22.128 15.5063 22.272 14.3682 22.464 13.6569C22.656 12.9456 22.896 11.9498 23.184 10.6695C23.472 9.38912 23.832 8.3696 24.264 7.61088C24.744 6.85216 25.272 5.9749 25.848 4.97908C26.472 3.98326 27.192 3.106 28.008 2.34728C28.872 1.54114 29.832 0.758717 30.888 0ZM9.72 0L13.248 4.48117C11.904 5.71409 10.608 7.61088 9.36 10.1715C8.16 12.6848 7.512 15.8382 7.416 19.6318L14.4 20.6276V34H0V27.6695C0 24.7768 0.024 22.5718 0.072 21.0544C0.12 19.537 0.312 17.5927 0.648 15.2218C0.984 12.8033 1.464 10.8354 2.088 9.31799C2.76 7.80056 3.72 6.18828 4.968 4.48117C6.264 2.77406 7.848 1.28033 9.72 0Z" fill="#D4A041"/>
</svg>
