<svg width="50" height="50" viewBox="0 0 50 50" fill="none" xmlns="http://www.w3.org/2000/svg">
<g clip-path="url(#clip0_803_776)">
<path d="M31.6825 50C31.6471 50 31.6116 49.9976 31.5762 49.9929L31.1269 49.9331H18.3178C18.102 49.9331 17.8952 49.8468 17.7436 49.6929C17.592 49.5389 17.5082 49.3306 17.5113 49.1144L17.5783 44.6494C17.5783 40.842 21.0388 39.0735 23.134 38.6152C23.9318 38.3372 26.1011 38.3001 26.947 38.6179C29.043 39.0798 32.4897 40.8506 32.4897 44.6612V49.1935C32.4897 49.4259 32.3897 49.6476 32.2141 49.8C32.0664 49.9299 31.877 50 31.6825 50ZM19.1364 48.3202H30.8768V44.6612C30.8768 41.1259 26.7178 40.217 26.5406 40.18C26.4646 40.1639 26.3921 40.1379 26.3244 40.1017C25.9649 39.967 24.1019 39.9764 23.6896 40.1273C23.6534 40.1403 23.5656 40.1718 23.5278 40.1789C23.3502 40.2163 19.1912 41.1251 19.1912 44.6604L19.1364 48.3202Z" fill="black"/>
<path d="M25.0002 37.1307C22.7131 37.1307 20.8525 35.2638 20.8525 32.9677C20.8525 30.672 22.7131 28.8039 25.0002 28.8039C27.2872 28.8039 29.1478 30.672 29.1478 32.9677C29.1478 35.2638 27.2872 37.1307 25.0002 37.1307ZM25.0002 30.4168C23.6035 30.4168 22.4654 31.5615 22.4654 32.9677C22.4654 34.3735 23.6027 35.5178 25.0002 35.5178C26.3977 35.5178 27.5349 34.3735 27.5349 32.9677C27.5349 31.5615 26.3969 30.4168 25.0002 30.4168Z" fill="black"/>
<path d="M48.3869 50C48.3514 50 48.316 49.9976 48.2798 49.9929L47.8321 49.9331H35.0233C34.8072 49.9331 34.6008 49.8468 34.4492 49.6928C34.2976 49.5389 34.2137 49.3306 34.2169 49.1144L34.2838 44.6494C34.2838 40.842 37.7443 39.0735 39.8392 38.6152C40.637 38.3364 42.8063 38.2994 43.6513 38.6187C45.7466 39.0798 49.1933 40.8498 49.1933 44.6612V49.1935C49.1933 49.4259 49.0933 49.6476 48.9177 49.8007C48.7708 49.9299 48.5814 50 48.3869 50ZM35.8408 48.3201H47.5804V44.6612C47.5804 41.1259 43.4218 40.217 43.2442 40.18C43.1686 40.1639 43.0949 40.1379 43.0272 40.1009C42.6693 39.9678 40.8063 39.9772 40.394 40.1265C40.3578 40.1403 40.27 40.1718 40.2322 40.1788C40.0546 40.2163 35.8959 41.1243 35.8959 44.6604L35.8408 48.3201Z" fill="black"/>
<path d="M41.7049 37.1307C39.4178 37.1307 37.5576 35.2638 37.5576 32.9677C37.5576 30.672 39.4178 28.8039 41.7049 28.8039C43.9923 28.8039 45.8533 30.672 45.8533 32.9677C45.8533 35.2638 43.9923 37.1307 41.7049 37.1307ZM41.7049 30.4168C40.3081 30.4168 39.1705 31.5615 39.1705 32.9677C39.1705 34.3735 40.3073 35.5178 41.7049 35.5178C43.1028 35.5178 44.2404 34.3735 44.2404 32.9677C44.2396 31.5615 43.1028 30.4168 41.7049 30.4168Z" fill="black"/>
<path d="M14.9766 50C14.9412 50 14.9054 49.9976 14.8691 49.9929L14.4218 49.9331H1.61269C1.39651 49.9331 1.19017 49.8468 1.03857 49.6928C0.886962 49.5389 0.803088 49.3306 0.806238 49.1144L0.87318 44.6494C0.87318 40.842 4.33368 39.0735 6.42895 38.6152C7.22556 38.3364 9.39566 38.2994 10.2411 38.6187C12.3372 39.0798 15.7839 40.8506 15.7839 44.6612V49.1935C15.7839 49.4259 15.6839 49.6476 15.5078 49.8007C15.3602 49.9299 15.1708 50 14.9766 50ZM2.43135 48.3201H14.171V44.6612C14.171 41.1251 10.0119 40.217 9.83472 40.18C9.75872 40.1639 9.68548 40.1379 9.61775 40.1009C9.25941 39.9678 7.39646 39.9772 6.98457 40.1265C6.94834 40.1403 6.86053 40.1718 6.82234 40.1788C6.64514 40.2163 2.48608 41.1243 2.48608 44.6604L2.43135 48.3201Z" fill="black"/>
<path d="M8.29539 37.1307C6.00835 37.1307 4.14697 35.2638 4.14697 32.9677C4.14697 30.672 6.00835 28.8039 8.29539 28.8039C10.5824 28.8039 12.443 30.672 12.443 32.9677C12.443 35.2638 10.5824 37.1307 8.29539 37.1307ZM8.29539 30.4168C6.89789 30.4168 5.75988 31.5615 5.75988 32.9677C5.75988 34.3735 6.8971 35.5178 8.29539 35.5178C9.69212 35.5178 10.8301 34.3735 10.8301 32.9677C10.8301 31.5615 9.6929 30.4168 8.29539 30.4168Z" fill="black"/>
<path d="M30.3442 9.92749H31.9571V18.1444H30.3442V9.92749Z" fill="black"/>
<path d="M33.5986 12.8784H35.2115V18.1444H33.5986V12.8784Z" fill="black"/>
<path d="M36.7339 10.446H38.3468V18.1444H36.7339V10.446Z" fill="black"/>
<path d="M41.0591 4.22168H42.672V18.1444H41.0591V4.22168Z" fill="black"/>
<path d="M46.0325 21.7573H22.5994C22.1536 21.7573 21.7929 21.397 21.7929 20.9508C21.7929 20.5047 22.1536 20.1444 22.5994 20.1444H45.2261V1.6129H18.1383V16.2428C18.1383 16.6886 17.7776 17.0493 17.3318 17.0493C16.8857 17.0493 16.5254 16.6886 16.5254 16.2428V0.806452C16.5254 0.360304 16.8857 0 17.3318 0H46.0325C46.4787 0 46.839 0.360304 46.839 0.806452V20.9508C46.839 21.3958 46.4787 21.7573 46.0325 21.7573Z" fill="black"/>
<path d="M10.2499 10.3976C7.75569 10.3976 5.72656 8.36061 5.72656 5.8558C5.72656 3.35257 7.75647 1.31439 10.2499 1.31439C12.7436 1.31439 14.7735 3.35139 14.7735 5.8558C14.7735 8.35982 12.7444 10.3976 10.2499 10.3976ZM10.2499 2.9273C8.64522 2.9273 7.33947 4.24093 7.33947 5.8558C7.33947 7.47107 8.64522 8.7847 10.2499 8.7847C11.8549 8.7847 13.1606 7.47107 13.1606 5.8558C13.1606 4.24093 11.8549 2.9273 10.2499 2.9273Z" fill="black"/>
<path d="M14.7208 27.5095H6.04046C5.59432 27.5095 5.23401 27.1492 5.23401 26.7031V25.4749C4.86229 25.5926 4.46064 25.6163 4.06293 25.534C3.00013 25.3194 2.22754 24.3475 2.22754 23.2256V19.3194C2.22754 17.091 2.89184 14.9426 4.14995 13.1072C4.58862 12.4669 5.17022 11.9814 5.82979 11.7042C6.50827 11.4187 7.22415 11.275 7.9613 11.275H12.7807C12.9 11.275 13.0193 11.2797 13.1379 11.2895C14.4767 11.3974 15.734 12.1885 16.5007 13.4057L18.3129 16.2869L21.8942 18.2389C23.126 18.9107 23.7096 20.329 23.2823 21.6112C23.0354 22.3499 22.5129 22.9354 21.8096 23.2595C21.1209 23.5789 20.3188 23.5978 19.6131 23.3123C19.584 23.3009 19.5556 23.2871 19.5292 23.2717L15.545 21.0926L15.5281 26.7066C15.5257 27.15 15.1654 27.5095 14.7208 27.5095ZM6.84692 25.8966H13.9171L13.9349 19.7305L13.9388 18.4724C13.9404 18.0274 14.3007 17.6687 14.7453 17.6687H14.7476C15.1926 17.6703 15.5517 18.0306 15.5517 18.4751V18.4775L15.5493 19.2556L20.255 21.8297C20.5444 21.9364 20.8539 21.9226 21.1331 21.7927C21.4284 21.6572 21.6485 21.4103 21.7525 21.0993C21.9297 20.5677 21.6588 19.9459 21.1224 19.6533L17.3564 17.601C17.2355 17.5348 17.1339 17.4395 17.0599 17.3218L15.1347 14.2629C14.6378 13.4734 13.8419 12.9631 13.0071 12.8961C12.9315 12.8894 12.8555 12.8863 12.7799 12.8863H7.96051C7.43955 12.8863 6.93394 12.9887 6.45472 13.1895C6.08063 13.3458 5.74356 13.6329 5.48052 14.0168C4.40748 15.584 3.84044 17.4171 3.84044 19.3178V23.2256C3.84044 23.5781 4.07434 23.8911 4.38385 23.9533C4.67603 24.012 4.8808 23.8911 4.97491 23.8136C5.13951 23.6789 5.23401 23.4788 5.23401 23.2654V17.9006C5.23401 17.4549 5.59432 17.0942 6.04046 17.0942C6.48622 17.0942 6.84692 17.4549 6.84692 17.9006V25.8966Z" fill="black"/>
<path d="M20.6006 18.8539L26.0457 10.7729L27.3826 11.6738L21.9375 19.7549L20.6006 18.8539Z" fill="black"/>
</g>
<defs>
<clipPath id="clip0_803_776">
<rect width="50" height="50" fill="white"/>
</clipPath>
</defs>
</svg>
