<svg width="50" height="50" viewBox="0 0 50 50" fill="none" xmlns="http://www.w3.org/2000/svg">
<path d="M17.8676 18.6765C17.8676 16.3971 16.0294 14.5588 13.75 14.5588C11.4706 14.5588 9.63232 16.3971 9.63232 18.6765C9.63232 20.9559 11.4706 22.7941 13.75 22.7941C15.9559 22.7941 17.8676 20.9559 17.8676 18.6765ZM11.1029 18.6765C11.1029 17.2059 12.2794 16.0294 13.75 16.0294C15.2206 16.0294 16.397 17.2059 16.397 18.6765C16.397 20.1471 15.2206 21.3235 13.75 21.3235C12.2794 21.3235 11.1029 20.1471 11.1029 18.6765Z" fill="black"/>
<path d="M21.544 32.7941C21.9852 32.7941 22.2793 32.5 22.2793 32.0588V30.5147C22.2793 26.9853 19.4117 24.1176 15.8823 24.1176H11.544C8.01462 24.1176 5.14697 26.9853 5.14697 30.5147V32.0588C5.14697 32.5 5.44109 32.7941 5.88227 32.7941H17.1323C17.5734 32.7941 17.8676 32.5 17.8676 32.0588C17.8676 31.6176 17.5734 31.3235 17.1323 31.3235H6.61756V30.5147C6.61756 27.7941 8.82344 25.5882 11.544 25.5882H15.8823C18.6029 25.5882 20.8087 27.7941 20.8087 30.5147V32.0588C20.8087 32.5 21.1029 32.7941 21.544 32.7941Z" fill="black"/>
<path d="M37.2794 24.6323H26.6176C26.1764 24.6323 25.8823 24.9264 25.8823 25.3676C25.8823 25.8088 26.1764 26.1029 26.6176 26.1029H37.3529C37.7941 26.1029 38.0882 25.8088 38.0882 25.3676C38.0882 24.9264 37.7206 24.6323 37.2794 24.6323Z" fill="black"/>
<path d="M37.2794 29.5588H26.6176C26.1764 29.5588 25.8823 29.853 25.8823 30.2941C25.8823 30.7353 26.1764 31.0294 26.6176 31.0294H37.3529C37.7941 31.0294 38.0882 30.7353 38.0882 30.2941C38.0882 29.853 37.7206 29.5588 37.2794 29.5588Z" fill="black"/>
<path d="M37.2793 5.88233C37.0587 5.73527 36.7646 5.66174 36.4705 5.8088C36.1764 5.95586 36.0293 6.17644 36.0293 6.47056V13.9706C36.0293 14.5588 36.7646 14.9264 37.2058 14.5588L42.0587 10.8088C42.2058 10.6617 42.3528 10.4412 42.3528 10.2206C42.3528 9.99997 42.2793 9.77939 42.0587 9.63233L37.2793 5.88233ZM37.5734 12.4264V7.94115L40.5146 10.2206L37.5734 12.4264Z" fill="black"/>
<path d="M38.0148 1.47058C33.5295 1.47058 29.5589 3.82352 28.0884 7.35293H4.41188C2.79423 7.35293 1.4707 8.67646 1.4707 10.2941V39.2647C1.4707 40.8823 2.79423 42.2059 4.41188 42.2059H17.2795L15.8089 47.0588H12.5001C12.0589 47.0588 11.7648 47.3529 11.7648 47.7941C11.7648 48.2353 12.0589 48.5294 12.5001 48.5294H33.0148C33.456 48.5294 33.7501 48.2353 33.7501 47.7941C33.7501 47.3529 33.456 47.0588 33.0148 47.0588H29.706L28.9707 44.5588C28.8236 44.1912 28.456 43.9706 28.0884 44.0441C27.7207 44.1912 27.5001 44.5588 27.5736 44.9265L28.2354 46.9853H17.3531L18.8236 42.1323H41.1766C42.7942 42.1323 44.1178 40.8088 44.1178 39.1912C44.1178 23.5294 44.1178 33.5294 44.1178 21.25C44.1178 20.8088 43.8236 20.5147 43.3825 20.5147C42.9413 20.5147 42.6472 20.8088 42.6472 21.25V34.9265H2.94129V10.2941C2.94129 9.48529 3.60306 8.82352 4.41188 8.82352H27.6472C27.5736 9.2647 27.5001 9.70588 27.5001 10.1471C27.5001 11.9853 28.1619 13.6765 29.4119 15.1471C29.4854 15.6618 29.4854 16.9118 27.6472 17.9412C27.3531 18.0882 27.1325 18.3823 27.0589 18.6765C26.9854 18.9706 27.0589 19.3382 27.206 19.5588C27.5736 20.1471 28.1619 20.3676 29.0442 20.3676C30.2942 20.3676 32.1325 19.7794 34.7795 18.4559C35.8089 18.75 36.9119 18.8971 38.0148 18.8971C43.8236 18.8971 48.5295 15 48.5295 10.1471C48.5295 5.36764 43.7501 1.47058 38.0148 1.47058ZM41.1766 40.7353H4.41188C3.60306 40.7353 2.94129 40.0735 2.94129 39.2647V36.4706H42.6472V39.2647C42.6472 40.0735 41.9854 40.7353 41.1766 40.7353ZM38.0148 17.5C37.0589 17.5 36.1031 17.3529 35.1472 17.1323C34.7795 17.0588 34.4119 17.0588 34.1178 17.2059C30.8089 18.8235 29.4119 19.0441 28.8236 18.8971C31.0295 17.4265 30.956 15.5147 30.8089 14.9265C30.7354 14.7059 30.6619 14.4118 30.5148 14.2647C29.4854 13.0882 28.9707 11.6176 28.9707 10.2206C28.9707 6.47058 32.6472 2.94117 38.0148 2.94117C43.3089 2.94117 47.0589 6.47058 47.0589 10.2206C47.0589 14.1912 43.0148 17.5 38.0148 17.5Z" fill="black"/>
</svg>
